<svg width="152" height="94" viewBox="0 0 152 94" fill="none" xmlns="http://www.w3.org/2000/svg">
<g opacity="0.05" filter="url(#filter0_f_1_329)">
<mask id="mask0_1_329" style="mask-type:alpha" maskUnits="userSpaceOnUse" x="61" y="61" width="48" height="48">
<path d="M80.0018 61C74.8416 61 74.1941 61.0226 72.1674 61.1148C70.1446 61.2074 68.764 61.5276 67.5559 61.9975C66.3062 62.4828 65.2461 63.132 64.1901 64.1884C63.1332 65.2445 62.484 66.3046 61.9971 67.5538C61.5261 68.7623 61.2054 70.1434 61.1144 72.1653C61.0238 74.1919 61 74.8399 61 80C61 85.1601 61.023 85.8057 61.1148 87.8324C61.2078 89.8551 61.528 91.2357 61.9975 92.4438C62.4832 93.6935 63.1324 94.7535 64.1889 95.8096C65.2446 96.8665 66.3046 97.5172 67.5535 98.0025C68.7624 98.4724 70.1434 98.7926 72.1658 98.8852C74.1925 98.9774 74.8397 99 79.9994 99C85.1599 99 85.8056 98.9774 87.8322 98.8852C89.855 98.7926 91.2372 98.4724 92.4461 98.0025C93.6954 97.5172 94.7539 96.8665 95.8096 95.8096C96.8664 94.7535 97.5156 93.6935 98.0025 92.4442C98.4696 91.2357 98.7902 89.8547 98.8852 87.8328C98.9762 85.8061 99 85.1601 99 80C99 74.8399 98.9762 74.1923 98.8852 72.1657C98.7902 70.143 98.4696 68.7623 98.0025 67.5542C97.5156 66.3046 96.8664 65.2445 95.8096 64.1884C94.7527 63.1316 93.6958 62.4824 92.4449 61.9975C91.2337 61.5276 89.8522 61.2074 87.8295 61.1148C85.8028 61.0226 85.1576 61 79.9958 61H80.0018ZM78.2973 64.424C78.8032 64.4232 79.3676 64.424 80.0018 64.424C85.0748 64.424 85.6761 64.4422 87.6794 64.5332C89.532 64.6179 90.5374 64.9275 91.2071 65.1875C92.0938 65.5319 92.726 65.9436 93.3906 66.6086C94.0556 67.2736 94.4673 67.9069 94.8124 68.7936C95.0725 69.4625 95.3824 70.4679 95.4668 72.3204C95.5578 74.3234 95.5776 74.925 95.5776 79.9956C95.5776 85.0663 95.5578 85.6679 95.4668 87.6709C95.382 89.5234 95.0725 90.5288 94.8124 91.1977C94.4681 92.0844 94.0556 92.7158 93.3906 93.3804C92.7256 94.0454 92.0942 94.457 91.2071 94.8014C90.5382 95.0626 89.532 95.3714 87.6794 95.4561C85.6765 95.5471 85.0748 95.5669 80.0018 95.5669C74.9283 95.5669 74.3271 95.5471 72.3241 95.4561C70.4716 95.3706 69.4662 95.0611 68.796 94.801C67.9093 94.4566 67.276 94.045 66.611 93.38C65.946 92.715 65.5343 92.0832 65.1891 91.1961C64.9291 90.5272 64.6191 89.5218 64.5348 87.6693C64.4438 85.6664 64.4256 85.0647 64.4256 79.9909C64.4256 74.9171 64.4438 74.3186 64.5348 72.3157C64.6195 70.4632 64.9291 69.4578 65.1891 68.788C65.5335 67.9014 65.946 67.268 66.611 66.603C67.276 65.938 67.9093 65.5264 68.796 65.1812C69.4658 64.9199 70.4716 64.6112 72.3241 64.5261C74.0769 64.4469 74.7561 64.4232 78.2973 64.4192V64.424ZM90.1439 67.5787C88.8852 67.5787 87.8639 68.5988 87.8639 69.858C87.8639 71.1167 88.8852 72.138 90.1439 72.138C91.4027 72.138 92.424 71.1167 92.424 69.858C92.424 68.5992 91.4027 67.578 90.1439 67.578V67.5787ZM80.0018 70.2427C74.6132 70.2427 70.2444 74.6115 70.2444 80C70.2444 85.3885 74.6132 89.7553 80.0018 89.7553C85.3903 89.7553 89.7576 85.3885 89.7576 80C89.7576 74.6115 85.3903 70.2427 80.0018 70.2427ZM80.0018 73.6667C83.4994 73.6667 86.3352 76.502 86.3352 80C86.3352 83.4976 83.4994 86.3333 80.0018 86.3333C76.5038 86.3333 73.6684 83.4976 73.6684 80C73.6684 76.502 76.5038 73.6667 80.0018 73.6667Z" fill="white"/>
</mask>
<g mask="url(#mask0_1_329)">
<g filter="url(#filter1_d_1_329)">
<rect x="61" y="61" width="47.9993" height="47.9981" fill="#7A07A3"/>
</g>
</g>
</g>
<g opacity="0.1" filter="url(#filter2_f_1_329)">
<mask id="mask1_1_329" style="mask-type:alpha" maskUnits="userSpaceOnUse" x="57" y="57" width="48" height="48">
<path d="M76.0018 57C70.8416 57 70.1941 57.0226 68.1674 57.1148C66.1446 57.2074 64.764 57.5276 63.5559 57.9975C62.3062 58.4828 61.2461 59.132 60.1901 60.1884C59.1332 61.2445 58.484 62.3046 57.9971 63.5538C57.5261 64.7623 57.2054 66.1434 57.1144 68.1653C57.0238 70.1919 57 70.8399 57 76C57 81.1601 57.023 81.8057 57.1148 83.8324C57.2078 85.8551 57.528 87.2357 57.9975 88.4438C58.4832 89.6935 59.1324 90.7535 60.1889 91.8096C61.2446 92.8665 62.3046 93.5172 63.5535 94.0025C64.7624 94.4724 66.1434 94.7926 68.1658 94.8852C70.1925 94.9774 70.8397 95 75.9994 95C81.1599 95 81.8056 94.9774 83.8322 94.8852C85.855 94.7926 87.2372 94.4724 88.4461 94.0025C89.6954 93.5172 90.7539 92.8665 91.8096 91.8096C92.8664 90.7535 93.5156 89.6935 94.0025 88.4442C94.4696 87.2357 94.7902 85.8547 94.8852 83.8328C94.9762 81.8061 95 81.1601 95 76C95 70.8399 94.9762 70.1923 94.8852 68.1657C94.7902 66.143 94.4696 64.7623 94.0025 63.5542C93.5156 62.3046 92.8664 61.2445 91.8096 60.1884C90.7527 59.1316 89.6958 58.4824 88.4449 57.9975C87.2337 57.5276 85.8522 57.2074 83.8295 57.1148C81.8028 57.0226 81.1576 57 75.9958 57H76.0018ZM74.2973 60.424C74.8032 60.4232 75.3676 60.424 76.0018 60.424C81.0748 60.424 81.6761 60.4422 83.6794 60.5332C85.532 60.6179 86.5374 60.9275 87.2071 61.1875C88.0938 61.5319 88.726 61.9436 89.3906 62.6086C90.0556 63.2736 90.4673 63.9069 90.8124 64.7936C91.0725 65.4625 91.3824 66.4679 91.4668 68.3204C91.5578 70.3234 91.5776 70.925 91.5776 75.9956C91.5776 81.0663 91.5578 81.6679 91.4668 83.6709C91.382 85.5234 91.0725 86.5288 90.8124 87.1977C90.4681 88.0844 90.0556 88.7158 89.3906 89.3804C88.7256 90.0454 88.0942 90.457 87.2071 90.8014C86.5382 91.0626 85.532 91.3714 83.6794 91.4561C81.6765 91.5471 81.0748 91.5669 76.0018 91.5669C70.9283 91.5669 70.3271 91.5471 68.3241 91.4561C66.4716 91.3706 65.4662 91.0611 64.796 90.801C63.9093 90.4566 63.276 90.045 62.611 89.38C61.946 88.715 61.5343 88.0832 61.1891 87.1961C60.9291 86.5272 60.6191 85.5218 60.5348 83.6693C60.4438 81.6664 60.4256 81.0647 60.4256 75.9909C60.4256 70.9171 60.4438 70.3186 60.5348 68.3157C60.6195 66.4632 60.9291 65.4578 61.1891 64.788C61.5335 63.9014 61.946 63.268 62.611 62.603C63.276 61.938 63.9093 61.5264 64.796 61.1812C65.4658 60.9199 66.4716 60.6112 68.3241 60.5261C70.0769 60.4469 70.7561 60.4232 74.2973 60.4192V60.424ZM86.1439 63.5787C84.8852 63.5787 83.8639 64.5988 83.8639 65.858C83.8639 67.1167 84.8852 68.138 86.1439 68.138C87.4027 68.138 88.424 67.1167 88.424 65.858C88.424 64.5992 87.4027 63.578 86.1439 63.578V63.5787ZM76.0018 66.2427C70.6132 66.2427 66.2444 70.6115 66.2444 76C66.2444 81.3885 70.6132 85.7553 76.0018 85.7553C81.3903 85.7553 85.7576 81.3885 85.7576 76C85.7576 70.6115 81.3903 66.2427 76.0018 66.2427ZM76.0018 69.6667C79.4994 69.6667 82.3352 72.502 82.3352 76C82.3352 79.4976 79.4994 82.3333 76.0018 82.3333C72.5038 82.3333 69.6684 79.4976 69.6684 76C69.6684 72.502 72.5038 69.6667 76.0018 69.6667Z" fill="white"/>
</mask>
<g mask="url(#mask1_1_329)">
<g filter="url(#filter3_d_1_329)">
<rect x="57" y="57" width="47.9993" height="47.9981" fill="#7A07A3"/>
</g>
</g>
</g>
<g opacity="0.15" filter="url(#filter4_f_1_329)">
<mask id="mask2_1_329" style="mask-type:alpha" maskUnits="userSpaceOnUse" x="53" y="53" width="48" height="48">
<path d="M72.0018 53C66.8416 53 66.1941 53.0226 64.1674 53.1148C62.1446 53.2074 60.764 53.5276 59.5559 53.9975C58.3062 54.4828 57.2461 55.132 56.1901 56.1884C55.1332 57.2445 54.484 58.3046 53.9971 59.5538C53.5261 60.7623 53.2054 62.1434 53.1144 64.1653C53.0238 66.1919 53 66.8399 53 72C53 77.1601 53.023 77.8057 53.1148 79.8324C53.2078 81.8551 53.528 83.2357 53.9975 84.4438C54.4832 85.6935 55.1324 86.7535 56.1889 87.8096C57.2446 88.8665 58.3046 89.5172 59.5535 90.0025C60.7624 90.4724 62.1434 90.7926 64.1658 90.8852C66.1925 90.9774 66.8397 91 71.9994 91C77.1599 91 77.8056 90.9774 79.8322 90.8852C81.855 90.7926 83.2372 90.4724 84.4461 90.0025C85.6954 89.5172 86.7539 88.8665 87.8096 87.8096C88.8664 86.7535 89.5156 85.6935 90.0025 84.4442C90.4696 83.2357 90.7902 81.8547 90.8852 79.8328C90.9762 77.8061 91 77.1601 91 72C91 66.8399 90.9762 66.1923 90.8852 64.1657C90.7902 62.143 90.4696 60.7623 90.0025 59.5542C89.5156 58.3046 88.8664 57.2445 87.8096 56.1884C86.7527 55.1316 85.6958 54.4824 84.4449 53.9975C83.2337 53.5276 81.8522 53.2074 79.8295 53.1148C77.8028 53.0226 77.1576 53 71.9958 53H72.0018ZM70.2973 56.424C70.8032 56.4232 71.3676 56.424 72.0018 56.424C77.0748 56.424 77.6761 56.4422 79.6794 56.5332C81.532 56.6179 82.5374 56.9275 83.2071 57.1875C84.0938 57.5319 84.726 57.9436 85.3906 58.6086C86.0556 59.2736 86.4673 59.9069 86.8124 60.7936C87.0725 61.4625 87.3824 62.4679 87.4668 64.3204C87.5578 66.3234 87.5776 66.925 87.5776 71.9956C87.5776 77.0663 87.5578 77.6679 87.4668 79.6709C87.382 81.5234 87.0725 82.5288 86.8124 83.1977C86.4681 84.0844 86.0556 84.7158 85.3906 85.3804C84.7256 86.0454 84.0942 86.457 83.2071 86.8014C82.5382 87.0626 81.532 87.3714 79.6794 87.4561C77.6765 87.5471 77.0748 87.5669 72.0018 87.5669C66.9283 87.5669 66.3271 87.5471 64.3241 87.4561C62.4716 87.3706 61.4662 87.0611 60.796 86.801C59.9093 86.4566 59.276 86.045 58.611 85.38C57.946 84.715 57.5343 84.0832 57.1891 83.1961C56.9291 82.5272 56.6191 81.5218 56.5348 79.6693C56.4438 77.6664 56.4256 77.0647 56.4256 71.9909C56.4256 66.9171 56.4438 66.3186 56.5348 64.3157C56.6195 62.4632 56.9291 61.4578 57.1891 60.788C57.5335 59.9014 57.946 59.268 58.611 58.603C59.276 57.938 59.9093 57.5264 60.796 57.1812C61.4658 56.9199 62.4716 56.6112 64.3241 56.5261C66.0769 56.4469 66.7561 56.4232 70.2973 56.4192V56.424ZM82.1439 59.5787C80.8852 59.5787 79.8639 60.5988 79.8639 61.858C79.8639 63.1167 80.8852 64.138 82.1439 64.138C83.4027 64.138 84.424 63.1167 84.424 61.858C84.424 60.5992 83.4027 59.578 82.1439 59.578V59.5787ZM72.0018 62.2427C66.6132 62.2427 62.2444 66.6115 62.2444 72C62.2444 77.3885 66.6132 81.7553 72.0018 81.7553C77.3903 81.7553 81.7576 77.3885 81.7576 72C81.7576 66.6115 77.3903 62.2427 72.0018 62.2427ZM72.0018 65.6667C75.4994 65.6667 78.3352 68.502 78.3352 72C78.3352 75.4976 75.4994 78.3333 72.0018 78.3333C68.5038 78.3333 65.6684 75.4976 65.6684 72C65.6684 68.502 68.5038 65.6667 72.0018 65.6667Z" fill="white"/>
</mask>
<g mask="url(#mask2_1_329)">
<g filter="url(#filter5_d_1_329)">
<rect x="53" y="53" width="47.9993" height="47.9981" fill="#7A07A3"/>
</g>
</g>
</g>
<g opacity="0.2" filter="url(#filter6_f_1_329)">
<mask id="mask3_1_329" style="mask-type:alpha" maskUnits="userSpaceOnUse" x="49" y="49" width="48" height="48">
<path d="M68.0018 49C62.8416 49 62.1941 49.0226 60.1674 49.1148C58.1446 49.2074 56.764 49.5276 55.5559 49.9975C54.3062 50.4828 53.2461 51.132 52.1901 52.1884C51.1332 53.2445 50.484 54.3046 49.9971 55.5538C49.5261 56.7623 49.2054 58.1434 49.1144 60.1653C49.0238 62.1919 49 62.8399 49 68C49 73.1601 49.023 73.8057 49.1148 75.8324C49.2078 77.8551 49.528 79.2357 49.9975 80.4438C50.4832 81.6935 51.1324 82.7535 52.1889 83.8096C53.2446 84.8665 54.3046 85.5172 55.5535 86.0025C56.7624 86.4724 58.1434 86.7926 60.1658 86.8852C62.1925 86.9774 62.8397 87 67.9994 87C73.1599 87 73.8056 86.9774 75.8322 86.8852C77.855 86.7926 79.2372 86.4724 80.4461 86.0025C81.6954 85.5172 82.7539 84.8665 83.8096 83.8096C84.8664 82.7535 85.5156 81.6935 86.0025 80.4442C86.4696 79.2357 86.7902 77.8547 86.8852 75.8328C86.9762 73.8061 87 73.1601 87 68C87 62.8399 86.9762 62.1923 86.8852 60.1657C86.7902 58.143 86.4696 56.7623 86.0025 55.5542C85.5156 54.3046 84.8664 53.2445 83.8096 52.1884C82.7527 51.1316 81.6958 50.4824 80.4449 49.9975C79.2337 49.5276 77.8522 49.2074 75.8295 49.1148C73.8028 49.0226 73.1576 49 67.9958 49H68.0018ZM66.2973 52.424C66.8032 52.4232 67.3676 52.424 68.0018 52.424C73.0748 52.424 73.6761 52.4422 75.6794 52.5332C77.532 52.6179 78.5374 52.9275 79.2071 53.1875C80.0938 53.5319 80.726 53.9436 81.3906 54.6086C82.0556 55.2736 82.4673 55.9069 82.8124 56.7936C83.0725 57.4625 83.3824 58.4679 83.4668 60.3204C83.5578 62.3234 83.5776 62.925 83.5776 67.9956C83.5776 73.0663 83.5578 73.6679 83.4668 75.6709C83.382 77.5234 83.0725 78.5288 82.8124 79.1977C82.4681 80.0844 82.0556 80.7158 81.3906 81.3804C80.7256 82.0454 80.0942 82.457 79.2071 82.8014C78.5382 83.0626 77.532 83.3714 75.6794 83.4561C73.6765 83.5471 73.0748 83.5669 68.0018 83.5669C62.9283 83.5669 62.3271 83.5471 60.3241 83.4561C58.4716 83.3706 57.4662 83.0611 56.796 82.801C55.9093 82.4566 55.276 82.045 54.611 81.38C53.946 80.715 53.5343 80.0832 53.1891 79.1961C52.9291 78.5272 52.6191 77.5218 52.5348 75.6693C52.4438 73.6664 52.4256 73.0647 52.4256 67.9909C52.4256 62.9171 52.4438 62.3186 52.5348 60.3157C52.6195 58.4632 52.9291 57.4578 53.1891 56.788C53.5335 55.9014 53.946 55.268 54.611 54.603C55.276 53.938 55.9093 53.5264 56.796 53.1812C57.4658 52.9199 58.4716 52.6112 60.3241 52.5261C62.0769 52.4469 62.7561 52.4232 66.2973 52.4192V52.424ZM78.1439 55.5787C76.8852 55.5787 75.8639 56.5988 75.8639 57.858C75.8639 59.1167 76.8852 60.138 78.1439 60.138C79.4027 60.138 80.424 59.1167 80.424 57.858C80.424 56.5992 79.4027 55.578 78.1439 55.578V55.5787ZM68.0018 58.2427C62.6132 58.2427 58.2444 62.6115 58.2444 68C58.2444 73.3885 62.6132 77.7553 68.0018 77.7553C73.3903 77.7553 77.7576 73.3885 77.7576 68C77.7576 62.6115 73.3903 58.2427 68.0018 58.2427ZM68.0018 61.6667C71.4994 61.6667 74.3352 64.502 74.3352 68C74.3352 71.4976 71.4994 74.3333 68.0018 74.3333C64.5038 74.3333 61.6684 71.4976 61.6684 68C61.6684 64.502 64.5038 61.6667 68.0018 61.6667Z" fill="white"/>
</mask>
<g mask="url(#mask3_1_329)">
<g filter="url(#filter7_d_1_329)">
<rect x="49" y="49" width="47.9993" height="47.9981" fill="#7A07A3"/>
</g>
</g>
</g>
<g opacity="0.25" filter="url(#filter8_f_1_329)">
<mask id="mask4_1_329" style="mask-type:alpha" maskUnits="userSpaceOnUse" x="41" y="41" width="48" height="48">
<path d="M60.0018 41C54.8416 41 54.1941 41.0226 52.1674 41.1148C50.1446 41.2074 48.764 41.5276 47.5559 41.9975C46.3062 42.4828 45.2461 43.132 44.1901 44.1884C43.1332 45.2445 42.484 46.3046 41.9971 47.5538C41.5261 48.7623 41.2054 50.1434 41.1144 52.1653C41.0238 54.1919 41 54.8399 41 60C41 65.1601 41.023 65.8057 41.1148 67.8324C41.2078 69.8551 41.528 71.2357 41.9975 72.4438C42.4832 73.6935 43.1324 74.7535 44.1889 75.8096C45.2446 76.8665 46.3046 77.5172 47.5535 78.0025C48.7624 78.4724 50.1434 78.7926 52.1658 78.8852C54.1925 78.9774 54.8397 79 59.9994 79C65.1599 79 65.8056 78.9774 67.8322 78.8852C69.855 78.7926 71.2372 78.4724 72.4461 78.0025C73.6954 77.5172 74.7539 76.8665 75.8096 75.8096C76.8664 74.7535 77.5156 73.6935 78.0025 72.4442C78.4696 71.2357 78.7902 69.8547 78.8852 67.8328C78.9762 65.8061 79 65.1601 79 60C79 54.8399 78.9762 54.1923 78.8852 52.1657C78.7902 50.143 78.4696 48.7623 78.0025 47.5542C77.5156 46.3046 76.8664 45.2445 75.8096 44.1884C74.7527 43.1316 73.6958 42.4824 72.4449 41.9975C71.2337 41.5276 69.8522 41.2074 67.8295 41.1148C65.8028 41.0226 65.1576 41 59.9958 41H60.0018ZM58.2973 44.424C58.8032 44.4232 59.3676 44.424 60.0018 44.424C65.0748 44.424 65.6761 44.4422 67.6794 44.5332C69.532 44.6179 70.5374 44.9275 71.2071 45.1875C72.0938 45.5319 72.726 45.9436 73.3906 46.6086C74.0556 47.2736 74.4673 47.9069 74.8124 48.7936C75.0725 49.4625 75.3824 50.4679 75.4668 52.3204C75.5578 54.3234 75.5776 54.925 75.5776 59.9956C75.5776 65.0663 75.5578 65.6679 75.4668 67.6709C75.382 69.5234 75.0725 70.5288 74.8124 71.1977C74.4681 72.0844 74.0556 72.7158 73.3906 73.3804C72.7256 74.0454 72.0942 74.457 71.2071 74.8014C70.5382 75.0626 69.532 75.3714 67.6794 75.4561C65.6765 75.5471 65.0748 75.5669 60.0018 75.5669C54.9283 75.5669 54.3271 75.5471 52.3241 75.4561C50.4716 75.3706 49.4662 75.0611 48.796 74.801C47.9093 74.4566 47.276 74.045 46.611 73.38C45.946 72.715 45.5343 72.0832 45.1891 71.1961C44.9291 70.5272 44.6191 69.5218 44.5348 67.6693C44.4438 65.6664 44.4256 65.0647 44.4256 59.9909C44.4256 54.9171 44.4438 54.3186 44.5348 52.3157C44.6195 50.4632 44.9291 49.4578 45.1891 48.788C45.5335 47.9014 45.946 47.268 46.611 46.603C47.276 45.938 47.9093 45.5264 48.796 45.1812C49.4658 44.9199 50.4716 44.6112 52.3241 44.5261C54.0769 44.4469 54.7561 44.4232 58.2973 44.4192V44.424ZM70.1439 47.5787C68.8852 47.5787 67.8639 48.5988 67.8639 49.858C67.8639 51.1167 68.8852 52.138 70.1439 52.138C71.4027 52.138 72.424 51.1167 72.424 49.858C72.424 48.5992 71.4027 47.578 70.1439 47.578V47.5787ZM60.0018 50.2427C54.6132 50.2427 50.2444 54.6115 50.2444 60C50.2444 65.3885 54.6132 69.7553 60.0018 69.7553C65.3903 69.7553 69.7576 65.3885 69.7576 60C69.7576 54.6115 65.3903 50.2427 60.0018 50.2427ZM60.0018 53.6667C63.4994 53.6667 66.3352 56.502 66.3352 60C66.3352 63.4976 63.4994 66.3333 60.0018 66.3333C56.5038 66.3333 53.6684 63.4976 53.6684 60C53.6684 56.502 56.5038 53.6667 60.0018 53.6667Z" fill="white"/>
</mask>
<g mask="url(#mask4_1_329)">
<g filter="url(#filter9_d_1_329)">
<rect x="41" y="41" width="47.9993" height="47.9981" fill="#7A07A3"/>
</g>
</g>
</g>
<g opacity="0.3" filter="url(#filter10_f_1_329)">
<mask id="mask5_1_329" style="mask-type:alpha" maskUnits="userSpaceOnUse" x="33" y="33" width="48" height="48">
<path d="M52.0018 33C46.8416 33 46.1941 33.0226 44.1674 33.1148C42.1446 33.2074 40.764 33.5276 39.5559 33.9975C38.3062 34.4828 37.2461 35.132 36.1901 36.1884C35.1332 37.2445 34.484 38.3046 33.9971 39.5538C33.5261 40.7623 33.2054 42.1434 33.1144 44.1653C33.0238 46.1919 33 46.8399 33 52C33 57.1601 33.023 57.8057 33.1148 59.8324C33.2078 61.8551 33.528 63.2357 33.9975 64.4438C34.4832 65.6935 35.1324 66.7535 36.1889 67.8096C37.2446 68.8665 38.3046 69.5172 39.5535 70.0025C40.7624 70.4724 42.1434 70.7926 44.1658 70.8852C46.1925 70.9774 46.8397 71 51.9994 71C57.1599 71 57.8056 70.9774 59.8322 70.8852C61.855 70.7926 63.2372 70.4724 64.4461 70.0025C65.6954 69.5172 66.7539 68.8665 67.8096 67.8096C68.8664 66.7535 69.5156 65.6935 70.0025 64.4442C70.4696 63.2357 70.7902 61.8547 70.8852 59.8328C70.9762 57.8061 71 57.1601 71 52C71 46.8399 70.9762 46.1923 70.8852 44.1657C70.7902 42.143 70.4696 40.7623 70.0025 39.5542C69.5156 38.3046 68.8664 37.2445 67.8096 36.1884C66.7527 35.1316 65.6958 34.4824 64.4449 33.9975C63.2337 33.5276 61.8522 33.2074 59.8295 33.1148C57.8028 33.0226 57.1576 33 51.9958 33H52.0018ZM50.2973 36.424C50.8032 36.4232 51.3676 36.424 52.0018 36.424C57.0748 36.424 57.6761 36.4422 59.6794 36.5332C61.532 36.6179 62.5374 36.9275 63.2071 37.1875C64.0938 37.5319 64.726 37.9436 65.3906 38.6086C66.0556 39.2736 66.4673 39.9069 66.8124 40.7936C67.0725 41.4625 67.3824 42.4679 67.4668 44.3204C67.5578 46.3234 67.5776 46.925 67.5776 51.9956C67.5776 57.0663 67.5578 57.6679 67.4668 59.6709C67.382 61.5234 67.0725 62.5288 66.8124 63.1977C66.4681 64.0844 66.0556 64.7158 65.3906 65.3804C64.7256 66.0454 64.0942 66.457 63.2071 66.8014C62.5382 67.0626 61.532 67.3714 59.6794 67.4561C57.6765 67.5471 57.0748 67.5669 52.0018 67.5669C46.9283 67.5669 46.3271 67.5471 44.3241 67.4561C42.4716 67.3706 41.4662 67.0611 40.796 66.801C39.9093 66.4566 39.276 66.045 38.611 65.38C37.946 64.715 37.5343 64.0832 37.1891 63.1961C36.9291 62.5272 36.6191 61.5218 36.5348 59.6693C36.4438 57.6664 36.4256 57.0647 36.4256 51.9909C36.4256 46.9171 36.4438 46.3186 36.5348 44.3157C36.6195 42.4632 36.9291 41.4578 37.1891 40.788C37.5335 39.9014 37.946 39.268 38.611 38.603C39.276 37.938 39.9093 37.5264 40.796 37.1812C41.4658 36.9199 42.4716 36.6112 44.3241 36.5261C46.0769 36.4469 46.7561 36.4232 50.2973 36.4192V36.424ZM62.1439 39.5787C60.8852 39.5787 59.8639 40.5988 59.8639 41.858C59.8639 43.1167 60.8852 44.138 62.1439 44.138C63.4027 44.138 64.424 43.1167 64.424 41.858C64.424 40.5992 63.4027 39.578 62.1439 39.578V39.5787ZM52.0018 42.2427C46.6132 42.2427 42.2444 46.6115 42.2444 52C42.2444 57.3885 46.6132 61.7553 52.0018 61.7553C57.3903 61.7553 61.7576 57.3885 61.7576 52C61.7576 46.6115 57.3903 42.2427 52.0018 42.2427ZM52.0018 45.6667C55.4994 45.6667 58.3352 48.502 58.3352 52C58.3352 55.4976 55.4994 58.3333 52.0018 58.3333C48.5038 58.3333 45.6684 55.4976 45.6684 52C45.6684 48.502 48.5038 45.6667 52.0018 45.6667Z" fill="white"/>
</mask>
<g mask="url(#mask5_1_329)">
<g filter="url(#filter11_d_1_329)">
<rect x="33" y="33" width="47.9993" height="47.9981" fill="#7A07A3"/>
</g>
</g>
</g>
<g opacity="0.35" filter="url(#filter12_f_1_329)">
<mask id="mask6_1_329" style="mask-type:alpha" maskUnits="userSpaceOnUse" x="25" y="25" width="48" height="48">
<path d="M44.0018 25C38.8416 25 38.1941 25.0226 36.1674 25.1148C34.1446 25.2074 32.764 25.5276 31.5559 25.9975C30.3062 26.4828 29.2461 27.132 28.1901 28.1884C27.1332 29.2445 26.484 30.3046 25.9971 31.5538C25.5261 32.7623 25.2054 34.1434 25.1144 36.1653C25.0238 38.1919 25 38.8399 25 44C25 49.1601 25.023 49.8057 25.1148 51.8324C25.2078 53.8551 25.528 55.2357 25.9975 56.4438C26.4832 57.6935 27.1324 58.7535 28.1889 59.8096C29.2446 60.8665 30.3046 61.5172 31.5535 62.0025C32.7624 62.4724 34.1434 62.7926 36.1658 62.8852C38.1925 62.9774 38.8397 63 43.9994 63C49.1599 63 49.8056 62.9774 51.8322 62.8852C53.855 62.7926 55.2372 62.4724 56.4461 62.0025C57.6954 61.5172 58.7539 60.8665 59.8096 59.8096C60.8664 58.7535 61.5156 57.6935 62.0025 56.4442C62.4696 55.2357 62.7902 53.8547 62.8852 51.8328C62.9762 49.8061 63 49.1601 63 44C63 38.8399 62.9762 38.1923 62.8852 36.1657C62.7902 34.143 62.4696 32.7623 62.0025 31.5542C61.5156 30.3046 60.8664 29.2445 59.8096 28.1884C58.7527 27.1316 57.6958 26.4824 56.4449 25.9975C55.2337 25.5276 53.8522 25.2074 51.8295 25.1148C49.8028 25.0226 49.1576 25 43.9958 25H44.0018ZM42.2973 28.424C42.8032 28.4232 43.3676 28.424 44.0018 28.424C49.0748 28.424 49.6761 28.4422 51.6794 28.5332C53.532 28.6179 54.5374 28.9275 55.2071 29.1875C56.0938 29.5319 56.726 29.9436 57.3906 30.6086C58.0556 31.2736 58.4673 31.9069 58.8124 32.7936C59.0725 33.4625 59.3824 34.4679 59.4668 36.3204C59.5578 38.3234 59.5776 38.925 59.5776 43.9956C59.5776 49.0663 59.5578 49.6679 59.4668 51.6709C59.382 53.5234 59.0725 54.5288 58.8124 55.1977C58.4681 56.0844 58.0556 56.7158 57.3906 57.3804C56.7256 58.0454 56.0942 58.457 55.2071 58.8014C54.5382 59.0626 53.532 59.3714 51.6794 59.4561C49.6765 59.5471 49.0748 59.5669 44.0018 59.5669C38.9283 59.5669 38.3271 59.5471 36.3241 59.4561C34.4716 59.3706 33.4662 59.0611 32.796 58.801C31.9093 58.4566 31.276 58.045 30.611 57.38C29.946 56.715 29.5343 56.0832 29.1891 55.1961C28.9291 54.5272 28.6191 53.5218 28.5348 51.6693C28.4438 49.6664 28.4256 49.0647 28.4256 43.9909C28.4256 38.9171 28.4438 38.3186 28.5348 36.3157C28.6195 34.4632 28.9291 33.4578 29.1891 32.788C29.5335 31.9014 29.946 31.268 30.611 30.603C31.276 29.938 31.9093 29.5264 32.796 29.1812C33.4658 28.9199 34.4716 28.6112 36.3241 28.5261C38.0769 28.4469 38.7561 28.4232 42.2973 28.4192V28.424ZM54.1439 31.5787C52.8852 31.5787 51.8639 32.5988 51.8639 33.858C51.8639 35.1167 52.8852 36.138 54.1439 36.138C55.4027 36.138 56.424 35.1167 56.424 33.858C56.424 32.5992 55.4027 31.578 54.1439 31.578V31.5787ZM44.0018 34.2427C38.6132 34.2427 34.2444 38.6115 34.2444 44C34.2444 49.3885 38.6132 53.7553 44.0018 53.7553C49.3903 53.7553 53.7576 49.3885 53.7576 44C53.7576 38.6115 49.3903 34.2427 44.0018 34.2427ZM44.0018 37.6667C47.4994 37.6667 50.3352 40.502 50.3352 44C50.3352 47.4976 47.4994 50.3333 44.0018 50.3333C40.5038 50.3333 37.6684 47.4976 37.6684 44C37.6684 40.502 40.5038 37.6667 44.0018 37.6667Z" fill="white"/>
</mask>
<g mask="url(#mask6_1_329)">
<g filter="url(#filter13_d_1_329)">
<rect x="25" y="25" width="47.9993" height="47.9981" fill="#7A07A3"/>
</g>
</g>
</g>
<g opacity="0.4" filter="url(#filter14_f_1_329)">
<mask id="mask7_1_329" style="mask-type:alpha" maskUnits="userSpaceOnUse" x="24" y="24" width="48" height="48">
<path d="M43.0018 24C37.8416 24 37.1941 24.0226 35.1674 24.1148C33.1446 24.2074 31.764 24.5276 30.5559 24.9975C29.3062 25.4828 28.2461 26.132 27.1901 27.1884C26.1332 28.2445 25.484 29.3046 24.9971 30.5538C24.5261 31.7623 24.2054 33.1434 24.1144 35.1653C24.0238 37.1919 24 37.8399 24 43C24 48.1601 24.023 48.8057 24.1148 50.8324C24.2078 52.8551 24.528 54.2357 24.9975 55.4438C25.4832 56.6935 26.1324 57.7535 27.1889 58.8096C28.2446 59.8665 29.3046 60.5172 30.5535 61.0025C31.7624 61.4724 33.1434 61.7926 35.1658 61.8852C37.1925 61.9774 37.8397 62 42.9994 62C48.1599 62 48.8056 61.9774 50.8322 61.8852C52.855 61.7926 54.2372 61.4724 55.4461 61.0025C56.6954 60.5172 57.7539 59.8665 58.8096 58.8096C59.8664 57.7535 60.5156 56.6935 61.0025 55.4442C61.4696 54.2357 61.7902 52.8547 61.8852 50.8328C61.9762 48.8061 62 48.1601 62 43C62 37.8399 61.9762 37.1923 61.8852 35.1657C61.7902 33.143 61.4696 31.7623 61.0025 30.5542C60.5156 29.3046 59.8664 28.2445 58.8096 27.1884C57.7527 26.1316 56.6958 25.4824 55.4449 24.9975C54.2337 24.5276 52.8522 24.2074 50.8295 24.1148C48.8028 24.0226 48.1576 24 42.9958 24H43.0018ZM41.2973 27.424C41.8032 27.4232 42.3676 27.424 43.0018 27.424C48.0748 27.424 48.6761 27.4422 50.6794 27.5332C52.532 27.6179 53.5374 27.9275 54.2071 28.1875C55.0938 28.5319 55.726 28.9436 56.3906 29.6086C57.0556 30.2736 57.4673 30.9069 57.8124 31.7936C58.0725 32.4625 58.3824 33.4679 58.4668 35.3204C58.5578 37.3234 58.5776 37.925 58.5776 42.9956C58.5776 48.0663 58.5578 48.6679 58.4668 50.6709C58.382 52.5234 58.0725 53.5288 57.8124 54.1977C57.4681 55.0844 57.0556 55.7158 56.3906 56.3804C55.7256 57.0454 55.0942 57.457 54.2071 57.8014C53.5382 58.0626 52.532 58.3714 50.6794 58.4561C48.6765 58.5471 48.0748 58.5669 43.0018 58.5669C37.9283 58.5669 37.3271 58.5471 35.3241 58.4561C33.4716 58.3706 32.4662 58.0611 31.796 57.801C30.9093 57.4566 30.276 57.045 29.611 56.38C28.946 55.715 28.5343 55.0832 28.1891 54.1961C27.9291 53.5272 27.6191 52.5218 27.5348 50.6693C27.4438 48.6664 27.4256 48.0647 27.4256 42.9909C27.4256 37.9171 27.4438 37.3186 27.5348 35.3157C27.6195 33.4632 27.9291 32.4578 28.1891 31.788C28.5335 30.9014 28.946 30.268 29.611 29.603C30.276 28.938 30.9093 28.5264 31.796 28.1812C32.4658 27.9199 33.4716 27.6112 35.3241 27.5261C37.0769 27.4469 37.7561 27.4232 41.2973 27.4192V27.424ZM53.1439 30.5787C51.8852 30.5787 50.8639 31.5988 50.8639 32.858C50.8639 34.1167 51.8852 35.138 53.1439 35.138C54.4027 35.138 55.424 34.1167 55.424 32.858C55.424 31.5992 54.4027 30.578 53.1439 30.578V30.5787ZM43.0018 33.2427C37.6132 33.2427 33.2444 37.6115 33.2444 43C33.2444 48.3885 37.6132 52.7553 43.0018 52.7553C48.3903 52.7553 52.7576 48.3885 52.7576 43C52.7576 37.6115 48.3903 33.2427 43.0018 33.2427ZM43.0018 36.6667C46.4994 36.6667 49.3352 39.502 49.3352 43C49.3352 46.4976 46.4994 49.3333 43.0018 49.3333C39.5038 49.3333 36.6684 46.4976 36.6684 43C36.6684 39.502 39.5038 36.6667 43.0018 36.6667Z" fill="white"/>
</mask>
<g mask="url(#mask7_1_329)">
<g filter="url(#filter15_d_1_329)">
<rect x="24" y="24" width="47.9993" height="47.9981" fill="#7A07A3"/>
</g>
</g>
</g>
<g opacity="0.45" filter="url(#filter16_f_1_329)">
<mask id="mask8_1_329" style="mask-type:alpha" maskUnits="userSpaceOnUse" x="20" y="20" width="48" height="48">
<path d="M39.0018 20C33.8416 20 33.1941 20.0226 31.1674 20.1148C29.1446 20.2074 27.764 20.5276 26.5559 20.9975C25.3062 21.4828 24.2461 22.132 23.1901 23.1884C22.1332 24.2445 21.484 25.3046 20.9971 26.5538C20.5261 27.7623 20.2054 29.1434 20.1144 31.1653C20.0238 33.1919 20 33.8399 20 39C20 44.1601 20.023 44.8057 20.1148 46.8324C20.2078 48.8551 20.528 50.2357 20.9975 51.4438C21.4832 52.6935 22.1324 53.7535 23.1889 54.8096C24.2446 55.8665 25.3046 56.5172 26.5535 57.0025C27.7624 57.4724 29.1434 57.7926 31.1658 57.8852C33.1925 57.9774 33.8397 58 38.9994 58C44.1599 58 44.8056 57.9774 46.8322 57.8852C48.855 57.7926 50.2372 57.4724 51.4461 57.0025C52.6954 56.5172 53.7539 55.8665 54.8096 54.8096C55.8664 53.7535 56.5156 52.6935 57.0025 51.4442C57.4696 50.2357 57.7902 48.8547 57.8852 46.8328C57.9762 44.8061 58 44.1601 58 39C58 33.8399 57.9762 33.1923 57.8852 31.1657C57.7902 29.143 57.4696 27.7623 57.0025 26.5542C56.5156 25.3046 55.8664 24.2445 54.8096 23.1884C53.7527 22.1316 52.6958 21.4824 51.4449 20.9975C50.2337 20.5276 48.8522 20.2074 46.8295 20.1148C44.8028 20.0226 44.1576 20 38.9958 20H39.0018ZM37.2973 23.424C37.8032 23.4232 38.3676 23.424 39.0018 23.424C44.0748 23.424 44.6761 23.4422 46.6794 23.5332C48.532 23.6179 49.5374 23.9275 50.2071 24.1875C51.0938 24.5319 51.726 24.9436 52.3906 25.6086C53.0556 26.2736 53.4673 26.9069 53.8124 27.7936C54.0725 28.4625 54.3824 29.4679 54.4668 31.3204C54.5578 33.3234 54.5776 33.925 54.5776 38.9956C54.5776 44.0663 54.5578 44.6679 54.4668 46.6709C54.382 48.5234 54.0725 49.5288 53.8124 50.1977C53.4681 51.0844 53.0556 51.7158 52.3906 52.3804C51.7256 53.0454 51.0942 53.457 50.2071 53.8014C49.5382 54.0626 48.532 54.3714 46.6794 54.4561C44.6765 54.5471 44.0748 54.5669 39.0018 54.5669C33.9283 54.5669 33.3271 54.5471 31.3241 54.4561C29.4716 54.3706 28.4662 54.0611 27.796 53.801C26.9093 53.4566 26.276 53.045 25.611 52.38C24.946 51.715 24.5343 51.0832 24.1891 50.1961C23.9291 49.5272 23.6191 48.5218 23.5348 46.6693C23.4438 44.6664 23.4256 44.0647 23.4256 38.9909C23.4256 33.9171 23.4438 33.3186 23.5348 31.3157C23.6195 29.4632 23.9291 28.4578 24.1891 27.788C24.5335 26.9014 24.946 26.268 25.611 25.603C26.276 24.938 26.9093 24.5264 27.796 24.1812C28.4658 23.9199 29.4716 23.6112 31.3241 23.5261C33.0769 23.4469 33.7561 23.4232 37.2973 23.4192V23.424ZM49.1439 26.5787C47.8852 26.5787 46.8639 27.5988 46.8639 28.858C46.8639 30.1167 47.8852 31.138 49.1439 31.138C50.4027 31.138 51.424 30.1167 51.424 28.858C51.424 27.5992 50.4027 26.578 49.1439 26.578V26.5787ZM39.0018 29.2427C33.6132 29.2427 29.2444 33.6115 29.2444 39C29.2444 44.3885 33.6132 48.7553 39.0018 48.7553C44.3903 48.7553 48.7576 44.3885 48.7576 39C48.7576 33.6115 44.3903 29.2427 39.0018 29.2427ZM39.0018 32.6667C42.4994 32.6667 45.3352 35.502 45.3352 39C45.3352 42.4976 42.4994 45.3333 39.0018 45.3333C35.5038 45.3333 32.6684 42.4976 32.6684 39C32.6684 35.502 35.5038 32.6667 39.0018 32.6667Z" fill="white"/>
</mask>
<g mask="url(#mask8_1_329)">
<g filter="url(#filter17_d_1_329)">
<rect x="20" y="20" width="47.9993" height="47.9981" fill="#7A07A3"/>
</g>
</g>
</g>
<g opacity="0.5" filter="url(#filter18_f_1_329)">
<mask id="mask9_1_329" style="mask-type:alpha" maskUnits="userSpaceOnUse" x="16" y="16" width="48" height="48">
<path d="M35.0018 16C29.8416 16 29.1941 16.0226 27.1674 16.1148C25.1446 16.2074 23.764 16.5276 22.5559 16.9975C21.3062 17.4828 20.2461 18.132 19.1901 19.1884C18.1332 20.2445 17.484 21.3046 16.9971 22.5538C16.5261 23.7623 16.2054 25.1434 16.1144 27.1653C16.0238 29.1919 16 29.8399 16 35C16 40.1601 16.023 40.8057 16.1148 42.8324C16.2078 44.8551 16.528 46.2357 16.9975 47.4438C17.4832 48.6935 18.1324 49.7535 19.1889 50.8096C20.2446 51.8665 21.3046 52.5172 22.5535 53.0025C23.7624 53.4724 25.1434 53.7926 27.1658 53.8852C29.1925 53.9774 29.8397 54 34.9994 54C40.1599 54 40.8056 53.9774 42.8322 53.8852C44.855 53.7926 46.2372 53.4724 47.4461 53.0025C48.6954 52.5172 49.7539 51.8665 50.8096 50.8096C51.8664 49.7535 52.5156 48.6935 53.0025 47.4442C53.4696 46.2357 53.7902 44.8547 53.8852 42.8328C53.9762 40.8061 54 40.1601 54 35C54 29.8399 53.9762 29.1923 53.8852 27.1657C53.7902 25.143 53.4696 23.7623 53.0025 22.5542C52.5156 21.3046 51.8664 20.2445 50.8096 19.1884C49.7527 18.1316 48.6958 17.4824 47.4449 16.9975C46.2337 16.5276 44.8522 16.2074 42.8295 16.1148C40.8028 16.0226 40.1576 16 34.9958 16H35.0018ZM33.2973 19.424C33.8032 19.4232 34.3676 19.424 35.0018 19.424C40.0748 19.424 40.6761 19.4422 42.6794 19.5332C44.532 19.6179 45.5374 19.9275 46.2071 20.1875C47.0938 20.5319 47.726 20.9436 48.3906 21.6086C49.0556 22.2736 49.4673 22.9069 49.8124 23.7936C50.0725 24.4625 50.3824 25.4679 50.4668 27.3204C50.5578 29.3234 50.5776 29.925 50.5776 34.9956C50.5776 40.0663 50.5578 40.6679 50.4668 42.6709C50.382 44.5234 50.0725 45.5288 49.8124 46.1977C49.4681 47.0844 49.0556 47.7158 48.3906 48.3804C47.7256 49.0454 47.0942 49.457 46.2071 49.8014C45.5382 50.0626 44.532 50.3714 42.6794 50.4561C40.6765 50.5471 40.0748 50.5669 35.0018 50.5669C29.9283 50.5669 29.3271 50.5471 27.3241 50.4561C25.4716 50.3706 24.4662 50.0611 23.796 49.801C22.9093 49.4566 22.276 49.045 21.611 48.38C20.946 47.715 20.5343 47.0832 20.1891 46.1961C19.9291 45.5272 19.6191 44.5218 19.5348 42.6693C19.4438 40.6664 19.4256 40.0647 19.4256 34.9909C19.4256 29.9171 19.4438 29.3186 19.5348 27.3157C19.6195 25.4632 19.9291 24.4578 20.1891 23.788C20.5335 22.9014 20.946 22.268 21.611 21.603C22.276 20.938 22.9093 20.5264 23.796 20.1812C24.4658 19.9199 25.4716 19.6112 27.3241 19.5261C29.0769 19.4469 29.7561 19.4232 33.2973 19.4192V19.424ZM45.1439 22.5787C43.8852 22.5787 42.8639 23.5988 42.8639 24.858C42.8639 26.1167 43.8852 27.138 45.1439 27.138C46.4027 27.138 47.424 26.1167 47.424 24.858C47.424 23.5992 46.4027 22.578 45.1439 22.578V22.5787ZM35.0018 25.2427C29.6132 25.2427 25.2444 29.6115 25.2444 35C25.2444 40.3885 29.6132 44.7553 35.0018 44.7553C40.3903 44.7553 44.7576 40.3885 44.7576 35C44.7576 29.6115 40.3903 25.2427 35.0018 25.2427ZM35.0018 28.6667C38.4994 28.6667 41.3352 31.502 41.3352 35C41.3352 38.4976 38.4994 41.3333 35.0018 41.3333C31.5038 41.3333 28.6684 38.4976 28.6684 35C28.6684 31.502 31.5038 28.6667 35.0018 28.6667Z" fill="white"/>
</mask>
<g mask="url(#mask9_1_329)">
<g filter="url(#filter19_d_1_329)">
<rect x="16" y="16" width="47.9993" height="47.9981" fill="#7A07A3"/>
</g>
</g>
</g>
<g opacity="0.55" filter="url(#filter20_f_1_329)">
<mask id="mask10_1_329" style="mask-type:alpha" maskUnits="userSpaceOnUse" x="14" y="14" width="48" height="48">
<path d="M33.0018 14C27.8416 14 27.1941 14.0226 25.1674 14.1148C23.1446 14.2074 21.764 14.5276 20.5559 14.9975C19.3062 15.4828 18.2461 16.132 17.1901 17.1884C16.1332 18.2445 15.484 19.3046 14.9971 20.5538C14.5261 21.7623 14.2054 23.1434 14.1144 25.1653C14.0238 27.1919 14 27.8399 14 33C14 38.1601 14.023 38.8057 14.1148 40.8324C14.2078 42.8551 14.528 44.2357 14.9975 45.4438C15.4832 46.6935 16.1324 47.7535 17.1889 48.8096C18.2446 49.8665 19.3046 50.5172 20.5535 51.0025C21.7624 51.4724 23.1434 51.7926 25.1658 51.8852C27.1925 51.9774 27.8397 52 32.9994 52C38.1599 52 38.8056 51.9774 40.8322 51.8852C42.855 51.7926 44.2372 51.4724 45.4461 51.0025C46.6954 50.5172 47.7539 49.8665 48.8096 48.8096C49.8664 47.7535 50.5156 46.6935 51.0025 45.4442C51.4696 44.2357 51.7902 42.8547 51.8852 40.8328C51.9762 38.8061 52 38.1601 52 33C52 27.8399 51.9762 27.1923 51.8852 25.1657C51.7902 23.143 51.4696 21.7623 51.0025 20.5542C50.5156 19.3046 49.8664 18.2445 48.8096 17.1884C47.7527 16.1316 46.6958 15.4824 45.4449 14.9975C44.2337 14.5276 42.8522 14.2074 40.8295 14.1148C38.8028 14.0226 38.1576 14 32.9958 14H33.0018ZM31.2973 17.424C31.8032 17.4232 32.3676 17.424 33.0018 17.424C38.0748 17.424 38.6761 17.4422 40.6794 17.5332C42.532 17.6179 43.5374 17.9275 44.2071 18.1875C45.0938 18.5319 45.726 18.9436 46.3906 19.6086C47.0556 20.2736 47.4673 20.9069 47.8124 21.7936C48.0725 22.4625 48.3824 23.4679 48.4668 25.3204C48.5578 27.3234 48.5776 27.925 48.5776 32.9956C48.5776 38.0663 48.5578 38.6679 48.4668 40.6709C48.382 42.5234 48.0725 43.5288 47.8124 44.1977C47.4681 45.0844 47.0556 45.7158 46.3906 46.3804C45.7256 47.0454 45.0942 47.457 44.2071 47.8014C43.5382 48.0626 42.532 48.3714 40.6794 48.4561C38.6765 48.5471 38.0748 48.5669 33.0018 48.5669C27.9283 48.5669 27.3271 48.5471 25.3241 48.4561C23.4716 48.3706 22.4662 48.0611 21.796 47.801C20.9093 47.4566 20.276 47.045 19.611 46.38C18.946 45.715 18.5343 45.0832 18.1891 44.1961C17.9291 43.5272 17.6191 42.5218 17.5348 40.6693C17.4438 38.6664 17.4256 38.0647 17.4256 32.9909C17.4256 27.9171 17.4438 27.3186 17.5348 25.3157C17.6195 23.4632 17.9291 22.4578 18.1891 21.788C18.5335 20.9014 18.946 20.268 19.611 19.603C20.276 18.938 20.9093 18.5264 21.796 18.1812C22.4658 17.9199 23.4716 17.6112 25.3241 17.5261C27.0769 17.4469 27.7561 17.4232 31.2973 17.4192V17.424ZM43.1439 20.5787C41.8852 20.5787 40.8639 21.5988 40.8639 22.858C40.8639 24.1167 41.8852 25.138 43.1439 25.138C44.4027 25.138 45.424 24.1167 45.424 22.858C45.424 21.5992 44.4027 20.578 43.1439 20.578V20.5787ZM33.0018 23.2427C27.6132 23.2427 23.2444 27.6115 23.2444 33C23.2444 38.3885 27.6132 42.7553 33.0018 42.7553C38.3903 42.7553 42.7576 38.3885 42.7576 33C42.7576 27.6115 38.3903 23.2427 33.0018 23.2427ZM33.0018 26.6667C36.4994 26.6667 39.3352 29.502 39.3352 33C39.3352 36.4976 36.4994 39.3333 33.0018 39.3333C29.5038 39.3333 26.6684 36.4976 26.6684 33C26.6684 29.502 29.5038 26.6667 33.0018 26.6667Z" fill="white"/>
</mask>
<g mask="url(#mask10_1_329)">
<g filter="url(#filter21_d_1_329)">
<rect x="14" y="14" width="47.9993" height="47.9981" fill="#7A07A3"/>
</g>
</g>
</g>
<g opacity="0.6" filter="url(#filter22_f_1_329)">
<mask id="mask11_1_329" style="mask-type:alpha" maskUnits="userSpaceOnUse" x="12" y="12" width="48" height="48">
<path d="M31.0018 12C25.8416 12 25.1941 12.0226 23.1674 12.1148C21.1446 12.2074 19.764 12.5276 18.5559 12.9975C17.3062 13.4828 16.2461 14.132 15.1901 15.1884C14.1332 16.2445 13.484 17.3046 12.9971 18.5538C12.5261 19.7623 12.2054 21.1434 12.1144 23.1653C12.0238 25.1919 12 25.8399 12 31C12 36.1601 12.023 36.8057 12.1148 38.8324C12.2078 40.8551 12.528 42.2357 12.9975 43.4438C13.4832 44.6935 14.1324 45.7535 15.1889 46.8096C16.2446 47.8665 17.3046 48.5172 18.5535 49.0025C19.7624 49.4724 21.1434 49.7926 23.1658 49.8852C25.1925 49.9774 25.8397 50 30.9994 50C36.1599 50 36.8056 49.9774 38.8322 49.8852C40.855 49.7926 42.2372 49.4724 43.4461 49.0025C44.6954 48.5172 45.7539 47.8665 46.8096 46.8096C47.8664 45.7535 48.5156 44.6935 49.0025 43.4442C49.4696 42.2357 49.7902 40.8547 49.8852 38.8328C49.9762 36.8061 50 36.1601 50 31C50 25.8399 49.9762 25.1923 49.8852 23.1657C49.7902 21.143 49.4696 19.7623 49.0025 18.5542C48.5156 17.3046 47.8664 16.2445 46.8096 15.1884C45.7527 14.1316 44.6958 13.4824 43.4449 12.9975C42.2337 12.5276 40.8522 12.2074 38.8295 12.1148C36.8028 12.0226 36.1576 12 30.9958 12H31.0018ZM29.2973 15.424C29.8032 15.4232 30.3676 15.424 31.0018 15.424C36.0748 15.424 36.6761 15.4422 38.6794 15.5332C40.532 15.6179 41.5374 15.9275 42.2071 16.1875C43.0938 16.5319 43.726 16.9436 44.3906 17.6086C45.0556 18.2736 45.4673 18.9069 45.8124 19.7936C46.0725 20.4625 46.3824 21.4679 46.4668 23.3204C46.5578 25.3234 46.5776 25.925 46.5776 30.9956C46.5776 36.0663 46.5578 36.6679 46.4668 38.6709C46.382 40.5234 46.0725 41.5288 45.8124 42.1977C45.4681 43.0844 45.0556 43.7158 44.3906 44.3804C43.7256 45.0454 43.0942 45.457 42.2071 45.8014C41.5382 46.0626 40.532 46.3714 38.6794 46.4561C36.6765 46.5471 36.0748 46.5669 31.0018 46.5669C25.9283 46.5669 25.3271 46.5471 23.3241 46.4561C21.4716 46.3706 20.4662 46.0611 19.796 45.801C18.9093 45.4566 18.276 45.045 17.611 44.38C16.946 43.715 16.5343 43.0832 16.1891 42.1961C15.9291 41.5272 15.6191 40.5218 15.5348 38.6693C15.4438 36.6664 15.4256 36.0647 15.4256 30.9909C15.4256 25.9171 15.4438 25.3186 15.5348 23.3157C15.6195 21.4632 15.9291 20.4578 16.1891 19.788C16.5335 18.9014 16.946 18.268 17.611 17.603C18.276 16.938 18.9093 16.5264 19.796 16.1812C20.4658 15.9199 21.4716 15.6112 23.3241 15.5261C25.0769 15.4469 25.7561 15.4232 29.2973 15.4192V15.424ZM41.1439 18.5787C39.8852 18.5787 38.8639 19.5988 38.8639 20.858C38.8639 22.1167 39.8852 23.138 41.1439 23.138C42.4027 23.138 43.424 22.1167 43.424 20.858C43.424 19.5992 42.4027 18.578 41.1439 18.578V18.5787ZM31.0018 21.2427C25.6132 21.2427 21.2444 25.6115 21.2444 31C21.2444 36.3885 25.6132 40.7553 31.0018 40.7553C36.3903 40.7553 40.7576 36.3885 40.7576 31C40.7576 25.6115 36.3903 21.2427 31.0018 21.2427ZM31.0018 24.6667C34.4994 24.6667 37.3352 27.502 37.3352 31C37.3352 34.4976 34.4994 37.3333 31.0018 37.3333C27.5038 37.3333 24.6684 34.4976 24.6684 31C24.6684 27.502 27.5038 24.6667 31.0018 24.6667Z" fill="white"/>
</mask>
<g mask="url(#mask11_1_329)">
<g filter="url(#filter23_d_1_329)">
<rect x="12" y="12" width="47.9993" height="47.9981" fill="#7A07A3"/>
</g>
</g>
</g>
<g opacity="0.6" filter="url(#filter24_f_1_329)">
<mask id="mask12_1_329" style="mask-type:alpha" maskUnits="userSpaceOnUse" x="11" y="11" width="48" height="48">
<path d="M30.0018 11C24.8416 11 24.1941 11.0226 22.1674 11.1148C20.1446 11.2074 18.764 11.5276 17.5559 11.9975C16.3062 12.4828 15.2461 13.132 14.1901 14.1884C13.1332 15.2445 12.484 16.3046 11.9971 17.5538C11.5261 18.7623 11.2054 20.1434 11.1144 22.1653C11.0238 24.1919 11 24.8399 11 30C11 35.1601 11.023 35.8057 11.1148 37.8324C11.2078 39.8551 11.528 41.2357 11.9975 42.4438C12.4832 43.6935 13.1324 44.7535 14.1889 45.8096C15.2446 46.8665 16.3046 47.5172 17.5535 48.0025C18.7624 48.4724 20.1434 48.7926 22.1658 48.8852C24.1925 48.9774 24.8397 49 29.9994 49C35.1599 49 35.8056 48.9774 37.8322 48.8852C39.855 48.7926 41.2372 48.4724 42.4461 48.0025C43.6954 47.5172 44.7539 46.8665 45.8096 45.8096C46.8664 44.7535 47.5156 43.6935 48.0025 42.4442C48.4696 41.2357 48.7902 39.8547 48.8852 37.8328C48.9762 35.8061 49 35.1601 49 30C49 24.8399 48.9762 24.1923 48.8852 22.1657C48.7902 20.143 48.4696 18.7623 48.0025 17.5542C47.5156 16.3046 46.8664 15.2445 45.8096 14.1884C44.7527 13.1316 43.6958 12.4824 42.4449 11.9975C41.2337 11.5276 39.8522 11.2074 37.8295 11.1148C35.8028 11.0226 35.1576 11 29.9958 11H30.0018ZM28.2973 14.424C28.8032 14.4232 29.3676 14.424 30.0018 14.424C35.0748 14.424 35.6761 14.4422 37.6794 14.5332C39.532 14.6179 40.5374 14.9275 41.2071 15.1875C42.0938 15.5319 42.726 15.9436 43.3906 16.6086C44.0556 17.2736 44.4673 17.9069 44.8124 18.7936C45.0725 19.4625 45.3824 20.4679 45.4668 22.3204C45.5578 24.3234 45.5776 24.925 45.5776 29.9956C45.5776 35.0663 45.5578 35.6679 45.4668 37.6709C45.382 39.5234 45.0725 40.5288 44.8124 41.1977C44.4681 42.0844 44.0556 42.7158 43.3906 43.3804C42.7256 44.0454 42.0942 44.457 41.2071 44.8014C40.5382 45.0626 39.532 45.3714 37.6794 45.4561C35.6765 45.5471 35.0748 45.5669 30.0018 45.5669C24.9283 45.5669 24.3271 45.5471 22.3241 45.4561C20.4716 45.3706 19.4662 45.0611 18.796 44.801C17.9093 44.4566 17.276 44.045 16.611 43.38C15.946 42.715 15.5343 42.0832 15.1891 41.1961C14.9291 40.5272 14.6191 39.5218 14.5348 37.6693C14.4438 35.6664 14.4256 35.0647 14.4256 29.9909C14.4256 24.9171 14.4438 24.3186 14.5348 22.3157C14.6195 20.4632 14.9291 19.4578 15.1891 18.788C15.5335 17.9014 15.946 17.268 16.611 16.603C17.276 15.938 17.9093 15.5264 18.796 15.1812C19.4658 14.9199 20.4716 14.6112 22.3241 14.5261C24.0769 14.4469 24.7561 14.4232 28.2973 14.4192V14.424ZM40.1439 17.5787C38.8852 17.5787 37.8639 18.5988 37.8639 19.858C37.8639 21.1167 38.8852 22.138 40.1439 22.138C41.4027 22.138 42.424 21.1167 42.424 19.858C42.424 18.5992 41.4027 17.578 40.1439 17.578V17.5787ZM30.0018 20.2427C24.6132 20.2427 20.2444 24.6115 20.2444 30C20.2444 35.3885 24.6132 39.7553 30.0018 39.7553C35.3903 39.7553 39.7576 35.3885 39.7576 30C39.7576 24.6115 35.3903 20.2427 30.0018 20.2427ZM30.0018 23.6667C33.4994 23.6667 36.3352 26.502 36.3352 30C36.3352 33.4976 33.4994 36.3333 30.0018 36.3333C26.5038 36.3333 23.6684 33.4976 23.6684 30C23.6684 26.502 26.5038 23.6667 30.0018 23.6667Z" fill="white"/>
</mask>
<g mask="url(#mask12_1_329)">
<g filter="url(#filter25_d_1_329)">
<rect x="11" y="11" width="47.9993" height="47.9981" fill="#7A07A3"/>
</g>
</g>
</g>
<g opacity="0.6" filter="url(#filter26_f_1_329)">
<mask id="mask13_1_329" style="mask-type:alpha" maskUnits="userSpaceOnUse" x="10" y="10" width="48" height="48">
<path d="M29.0018 10C23.8416 10 23.1941 10.0226 21.1674 10.1148C19.1446 10.2074 17.764 10.5276 16.5559 10.9975C15.3062 11.4828 14.2461 12.132 13.1901 13.1884C12.1332 14.2445 11.484 15.3046 10.9971 16.5538C10.5261 17.7623 10.2054 19.1434 10.1144 21.1653C10.0238 23.1919 10 23.8399 10 29C10 34.1601 10.023 34.8057 10.1148 36.8324C10.2078 38.8551 10.528 40.2357 10.9975 41.4438C11.4832 42.6935 12.1324 43.7535 13.1889 44.8096C14.2446 45.8665 15.3046 46.5172 16.5535 47.0025C17.7624 47.4724 19.1434 47.7926 21.1658 47.8852C23.1925 47.9774 23.8397 48 28.9994 48C34.1599 48 34.8056 47.9774 36.8322 47.8852C38.855 47.7926 40.2372 47.4724 41.4461 47.0025C42.6954 46.5172 43.7539 45.8665 44.8096 44.8096C45.8664 43.7535 46.5156 42.6935 47.0025 41.4442C47.4696 40.2357 47.7902 38.8547 47.8852 36.8328C47.9762 34.8061 48 34.1601 48 29C48 23.8399 47.9762 23.1923 47.8852 21.1657C47.7902 19.143 47.4696 17.7623 47.0025 16.5542C46.5156 15.3046 45.8664 14.2445 44.8096 13.1884C43.7527 12.1316 42.6958 11.4824 41.4449 10.9975C40.2337 10.5276 38.8522 10.2074 36.8295 10.1148C34.8028 10.0226 34.1576 10 28.9958 10H29.0018ZM27.2973 13.424C27.8032 13.4232 28.3676 13.424 29.0018 13.424C34.0748 13.424 34.6761 13.4422 36.6794 13.5332C38.532 13.6179 39.5374 13.9275 40.2071 14.1875C41.0938 14.5319 41.726 14.9436 42.3906 15.6086C43.0556 16.2736 43.4673 16.9069 43.8124 17.7936C44.0725 18.4625 44.3824 19.4679 44.4668 21.3204C44.5578 23.3234 44.5776 23.925 44.5776 28.9956C44.5776 34.0663 44.5578 34.6679 44.4668 36.6709C44.382 38.5234 44.0725 39.5288 43.8124 40.1977C43.4681 41.0844 43.0556 41.7158 42.3906 42.3804C41.7256 43.0454 41.0942 43.457 40.2071 43.8014C39.5382 44.0626 38.532 44.3714 36.6794 44.4561C34.6765 44.5471 34.0748 44.5669 29.0018 44.5669C23.9283 44.5669 23.3271 44.5471 21.3241 44.4561C19.4716 44.3706 18.4662 44.0611 17.796 43.801C16.9093 43.4566 16.276 43.045 15.611 42.38C14.946 41.715 14.5343 41.0832 14.1891 40.1961C13.9291 39.5272 13.6191 38.5218 13.5348 36.6693C13.4438 34.6664 13.4256 34.0647 13.4256 28.9909C13.4256 23.9171 13.4438 23.3186 13.5348 21.3157C13.6195 19.4632 13.9291 18.4578 14.1891 17.788C14.5335 16.9014 14.946 16.268 15.611 15.603C16.276 14.938 16.9093 14.5264 17.796 14.1812C18.4658 13.9199 19.4716 13.6112 21.3241 13.5261C23.0769 13.4469 23.7561 13.4232 27.2973 13.4192V13.424ZM39.1439 16.5787C37.8852 16.5787 36.8639 17.5988 36.8639 18.858C36.8639 20.1167 37.8852 21.138 39.1439 21.138C40.4027 21.138 41.424 20.1167 41.424 18.858C41.424 17.5992 40.4027 16.578 39.1439 16.578V16.5787ZM29.0018 19.2427C23.6132 19.2427 19.2444 23.6115 19.2444 29C19.2444 34.3885 23.6132 38.7553 29.0018 38.7553C34.3903 38.7553 38.7576 34.3885 38.7576 29C38.7576 23.6115 34.3903 19.2427 29.0018 19.2427ZM29.0018 22.6667C32.4994 22.6667 35.3352 25.502 35.3352 29C35.3352 32.4976 32.4994 35.3333 29.0018 35.3333C25.5038 35.3333 22.6684 32.4976 22.6684 29C22.6684 25.502 25.5038 22.6667 29.0018 22.6667Z" fill="white"/>
</mask>
<g mask="url(#mask13_1_329)">
<g filter="url(#filter27_d_1_329)">
<rect x="10" y="10" width="47.9993" height="47.9981" fill="#7A07A3"/>
</g>
</g>
</g>
<g opacity="0.6" filter="url(#filter28_f_1_329)">
<mask id="mask14_1_329" style="mask-type:alpha" maskUnits="userSpaceOnUse" x="9" y="9" width="49" height="49">
<path d="M28.5018 9.5C23.3416 9.5 22.6941 9.52256 20.6674 9.61479C18.6446 9.70742 17.264 10.0276 16.0559 10.4975C14.8062 10.9828 13.7461 11.632 12.6901 12.6884C11.6332 13.7445 10.984 14.8046 10.4971 16.0538C10.0261 17.2623 9.70544 18.6434 9.6144 20.6653C9.52375 22.6919 9.5 23.3399 9.5 28.5C9.5 33.6601 9.52296 34.3057 9.61479 36.3324C9.70782 38.3551 10.028 39.7357 10.4975 40.9438C10.9832 42.1935 11.6324 43.2535 12.6889 44.3096C13.7446 45.3665 14.8046 46.0172 16.0535 46.5025C17.2624 46.9724 18.6434 47.2926 20.6658 47.3852C22.6925 47.4774 23.3397 47.5 28.4994 47.5C33.6599 47.5 34.3056 47.4774 36.3322 47.3852C38.355 47.2926 39.7372 46.9724 40.9461 46.5025C42.1954 46.0172 43.2539 45.3665 44.3096 44.3096C45.3664 43.2535 46.0156 42.1935 46.5025 40.9442C46.9696 39.7357 47.2902 38.3547 47.3852 36.3328C47.4762 34.3061 47.5 33.6601 47.5 28.5C47.5 23.3399 47.4762 22.6923 47.3852 20.6657C47.2902 18.643 46.9696 17.2623 46.5025 16.0542C46.0156 14.8046 45.3664 13.7445 44.3096 12.6884C43.2527 11.6316 42.1958 10.9824 40.9449 10.4975C39.7337 10.0276 38.3522 9.70742 36.3295 9.61479C34.3028 9.52256 33.6576 9.5 28.4958 9.5H28.5018ZM26.7973 12.924C27.3032 12.9232 27.8676 12.924 28.5018 12.924C33.5748 12.924 34.1761 12.9422 36.1794 13.0332C38.032 13.1179 39.0374 13.4275 39.7071 13.6875C40.5938 14.0319 41.226 14.4436 41.8906 15.1086C42.5556 15.7736 42.9673 16.4069 43.3124 17.2936C43.5725 17.9625 43.8824 18.9679 43.9668 20.8204C44.0578 22.8234 44.0776 23.425 44.0776 28.4956C44.0776 33.5663 44.0578 34.1679 43.9668 36.1709C43.882 38.0234 43.5725 39.0288 43.3124 39.6977C42.9681 40.5844 42.5556 41.2158 41.8906 41.8804C41.2256 42.5454 40.5942 42.957 39.7071 43.3014C39.0382 43.5626 38.032 43.8714 36.1794 43.9561C34.1765 44.0471 33.5748 44.0669 28.5018 44.0669C23.4283 44.0669 22.8271 44.0471 20.8241 43.9561C18.9716 43.8706 17.9662 43.5611 17.296 43.301C16.4093 42.9566 15.776 42.545 15.111 41.88C14.446 41.215 14.0343 40.5832 13.6891 39.6961C13.4291 39.0272 13.1191 38.0218 13.0348 36.1693C12.9438 34.1664 12.9256 33.5647 12.9256 28.4909C12.9256 23.4171 12.9438 22.8186 13.0348 20.8157C13.1195 18.9632 13.4291 17.9578 13.6891 17.288C14.0335 16.4014 14.446 15.768 15.111 15.103C15.776 14.438 16.4093 14.0264 17.296 13.6812C17.9658 13.4199 18.9716 13.1112 20.8241 13.0261C22.5769 12.9469 23.2561 12.9232 26.7973 12.9192V12.924ZM38.6439 16.0787C37.3852 16.0787 36.3639 17.0988 36.3639 18.358C36.3639 19.6167 37.3852 20.638 38.6439 20.638C39.9027 20.638 40.924 19.6167 40.924 18.358C40.924 17.0992 39.9027 16.078 38.6439 16.078V16.0787ZM28.5018 18.7427C23.1132 18.7427 18.7444 23.1115 18.7444 28.5C18.7444 33.8885 23.1132 38.2553 28.5018 38.2553C33.8903 38.2553 38.2576 33.8885 38.2576 28.5C38.2576 23.1115 33.8903 18.7427 28.5018 18.7427ZM28.5018 22.1667C31.9994 22.1667 34.8352 25.002 34.8352 28.5C34.8352 31.9976 31.9994 34.8333 28.5018 34.8333C25.0038 34.8333 22.1684 31.9976 22.1684 28.5C22.1684 25.002 25.0038 22.1667 28.5018 22.1667Z" fill="white"/>
</mask>
<g mask="url(#mask14_1_329)">
<g filter="url(#filter29_d_1_329)">
<rect x="9.5" y="9.5" width="47.9993" height="47.9981" fill="#7A07A3"/>
</g>
</g>
</g>
<g filter="url(#filter30_ii_1_329)">
<mask id="mask15_1_329" style="mask-type:alpha" maskUnits="userSpaceOnUse" x="9" y="9" width="48" height="48">
<path d="M28.0018 9C22.8416 9 22.1941 9.02256 20.1674 9.11479C18.1446 9.20742 16.764 9.52765 15.5559 9.9975C14.3062 10.4828 13.2461 11.132 12.1901 12.1884C11.1332 13.2445 10.484 14.3046 9.99711 15.5538C9.52607 16.7623 9.20544 18.1434 9.1144 20.1653C9.02375 22.1919 9 22.8399 9 28C9 33.1601 9.02296 33.8057 9.11479 35.8324C9.20782 37.8551 9.52805 39.2357 9.99751 40.4438C10.4832 41.6935 11.1324 42.7535 12.1889 43.8096C13.2446 44.8665 14.3046 45.5172 15.5535 46.0025C16.7624 46.4724 18.1434 46.7926 20.1658 46.8852C22.1925 46.9774 22.8397 47 27.9994 47C33.1599 47 33.8056 46.9774 35.8322 46.8852C37.855 46.7926 39.2372 46.4724 40.4461 46.0025C41.6954 45.5172 42.7539 44.8665 43.8096 43.8096C44.8664 42.7535 45.5156 41.6935 46.0025 40.4442C46.4696 39.2357 46.7902 37.8547 46.8852 35.8328C46.9762 33.8061 47 33.1601 47 28C47 22.8399 46.9762 22.1923 46.8852 20.1657C46.7902 18.143 46.4696 16.7623 46.0025 15.5542C45.5156 14.3046 44.8664 13.2445 43.8096 12.1884C42.7527 11.1316 41.6958 10.4824 40.4449 9.9975C39.2337 9.52765 37.8522 9.20742 35.8295 9.11479C33.8028 9.02256 33.1576 9 27.9958 9H28.0018ZM26.2973 12.424C26.8032 12.4232 27.3676 12.424 28.0018 12.424C33.0748 12.424 33.6761 12.4422 35.6794 12.5332C37.532 12.6179 38.5374 12.9275 39.2071 13.1875C40.0938 13.5319 40.726 13.9436 41.3906 14.6086C42.0556 15.2736 42.4673 15.9069 42.8124 16.7936C43.0725 17.4625 43.3824 18.4679 43.4668 20.3204C43.5578 22.3234 43.5776 22.925 43.5776 27.9956C43.5776 33.0663 43.5578 33.6679 43.4668 35.6709C43.382 37.5234 43.0725 38.5288 42.8124 39.1977C42.4681 40.0844 42.0556 40.7158 41.3906 41.3804C40.7256 42.0454 40.0942 42.457 39.2071 42.8014C38.5382 43.0626 37.532 43.3714 35.6794 43.4561C33.6765 43.5471 33.0748 43.5669 28.0018 43.5669C22.9283 43.5669 22.3271 43.5471 20.3241 43.4561C18.4716 43.3706 17.4662 43.0611 16.796 42.801C15.9093 42.4566 15.276 42.045 14.611 41.38C13.946 40.715 13.5343 40.0832 13.1891 39.1961C12.9291 38.5272 12.6191 37.5218 12.5348 35.6693C12.4438 33.6664 12.4256 33.0647 12.4256 27.9909C12.4256 22.9171 12.4438 22.3186 12.5348 20.3157C12.6195 18.4632 12.9291 17.4578 13.1891 16.788C13.5335 15.9014 13.946 15.268 14.611 14.603C15.276 13.938 15.9093 13.5264 16.796 13.1812C17.4658 12.9199 18.4716 12.6112 20.3241 12.5261C22.0769 12.4469 22.7561 12.4232 26.2973 12.4192V12.424ZM38.1439 15.5787C36.8852 15.5787 35.8639 16.5988 35.8639 17.858C35.8639 19.1167 36.8852 20.138 38.1439 20.138C39.4027 20.138 40.424 19.1167 40.424 17.858C40.424 16.5992 39.4027 15.578 38.1439 15.578V15.5787ZM28.0018 18.2427C22.6132 18.2427 18.2444 22.6115 18.2444 28C18.2444 33.3885 22.6132 37.7553 28.0018 37.7553C33.3903 37.7553 37.7576 33.3885 37.7576 28C37.7576 22.6115 33.3903 18.2427 28.0018 18.2427ZM28.0018 21.6667C31.4994 21.6667 34.3352 24.502 34.3352 28C34.3352 31.4976 31.4994 34.3333 28.0018 34.3333C24.5038 34.3333 21.6684 31.4976 21.6684 28C21.6684 24.502 24.5038 21.6667 28.0018 21.6667Z" fill="white"/>
</mask>
<g mask="url(#mask15_1_329)">
<rect x="9" y="9" width="47.9993" height="47.9981" fill="url(#paint0_linear_1_329)"/>
</g>
</g>
<defs>
<filter id="filter0_f_1_329" x="13" y="13" width="144" height="144" filterUnits="userSpaceOnUse" color-interpolation-filters="sRGB">
<feFlood flood-opacity="0" result="BackgroundImageFix"/>
<feBlend mode="normal" in="SourceGraphic" in2="BackgroundImageFix" result="shape"/>
<feGaussianBlur stdDeviation="24" result="effect1_foregroundBlur_1_329"/>
</filter>
<filter id="filter1_d_1_329" x="57" y="61" width="55.9993" height="55.9981" filterUnits="userSpaceOnUse" color-interpolation-filters="sRGB">
<feFlood flood-opacity="0" result="BackgroundImageFix"/>
<feColorMatrix in="SourceAlpha" type="matrix" values="0 0 0 0 0 0 0 0 0 0 0 0 0 0 0 0 0 0 127 0" result="hardAlpha"/>
<feOffset dy="4"/>
<feGaussianBlur stdDeviation="2"/>
<feComposite in2="hardAlpha" operator="out"/>
<feColorMatrix type="matrix" values="0 0 0 0 0 0 0 0 0 0 0 0 0 0 0 0 0 0 0.25 0"/>
<feBlend mode="normal" in2="BackgroundImageFix" result="effect1_dropShadow_1_329"/>
<feBlend mode="normal" in="SourceGraphic" in2="effect1_dropShadow_1_329" result="shape"/>
</filter>
<filter id="filter2_f_1_329" x="13" y="13" width="136" height="136" filterUnits="userSpaceOnUse" color-interpolation-filters="sRGB">
<feFlood flood-opacity="0" result="BackgroundImageFix"/>
<feBlend mode="normal" in="SourceGraphic" in2="BackgroundImageFix" result="shape"/>
<feGaussianBlur stdDeviation="22" result="effect1_foregroundBlur_1_329"/>
</filter>
<filter id="filter3_d_1_329" x="53" y="57" width="55.9993" height="55.9981" filterUnits="userSpaceOnUse" color-interpolation-filters="sRGB">
<feFlood flood-opacity="0" result="BackgroundImageFix"/>
<feColorMatrix in="SourceAlpha" type="matrix" values="0 0 0 0 0 0 0 0 0 0 0 0 0 0 0 0 0 0 127 0" result="hardAlpha"/>
<feOffset dy="4"/>
<feGaussianBlur stdDeviation="2"/>
<feComposite in2="hardAlpha" operator="out"/>
<feColorMatrix type="matrix" values="0 0 0 0 0 0 0 0 0 0 0 0 0 0 0 0 0 0 0.25 0"/>
<feBlend mode="normal" in2="BackgroundImageFix" result="effect1_dropShadow_1_329"/>
<feBlend mode="normal" in="SourceGraphic" in2="effect1_dropShadow_1_329" result="shape"/>
</filter>
<filter id="filter4_f_1_329" x="13" y="13" width="128" height="128" filterUnits="userSpaceOnUse" color-interpolation-filters="sRGB">
<feFlood flood-opacity="0" result="BackgroundImageFix"/>
<feBlend mode="normal" in="SourceGraphic" in2="BackgroundImageFix" result="shape"/>
<feGaussianBlur stdDeviation="20" result="effect1_foregroundBlur_1_329"/>
</filter>
<filter id="filter5_d_1_329" x="49" y="53" width="55.9993" height="55.9981" filterUnits="userSpaceOnUse" color-interpolation-filters="sRGB">
<feFlood flood-opacity="0" result="BackgroundImageFix"/>
<feColorMatrix in="SourceAlpha" type="matrix" values="0 0 0 0 0 0 0 0 0 0 0 0 0 0 0 0 0 0 127 0" result="hardAlpha"/>
<feOffset dy="4"/>
<feGaussianBlur stdDeviation="2"/>
<feComposite in2="hardAlpha" operator="out"/>
<feColorMatrix type="matrix" values="0 0 0 0 0 0 0 0 0 0 0 0 0 0 0 0 0 0 0.25 0"/>
<feBlend mode="normal" in2="BackgroundImageFix" result="effect1_dropShadow_1_329"/>
<feBlend mode="normal" in="SourceGraphic" in2="effect1_dropShadow_1_329" result="shape"/>
</filter>
<filter id="filter6_f_1_329" x="9" y="9" width="128" height="128" filterUnits="userSpaceOnUse" color-interpolation-filters="sRGB">
<feFlood flood-opacity="0" result="BackgroundImageFix"/>
<feBlend mode="normal" in="SourceGraphic" in2="BackgroundImageFix" result="shape"/>
<feGaussianBlur stdDeviation="20" result="effect1_foregroundBlur_1_329"/>
</filter>
<filter id="filter7_d_1_329" x="45" y="49" width="55.9993" height="55.9981" filterUnits="userSpaceOnUse" color-interpolation-filters="sRGB">
<feFlood flood-opacity="0" result="BackgroundImageFix"/>
<feColorMatrix in="SourceAlpha" type="matrix" values="0 0 0 0 0 0 0 0 0 0 0 0 0 0 0 0 0 0 127 0" result="hardAlpha"/>
<feOffset dy="4"/>
<feGaussianBlur stdDeviation="2"/>
<feComposite in2="hardAlpha" operator="out"/>
<feColorMatrix type="matrix" values="0 0 0 0 0 0 0 0 0 0 0 0 0 0 0 0 0 0 0.25 0"/>
<feBlend mode="normal" in2="BackgroundImageFix" result="effect1_dropShadow_1_329"/>
<feBlend mode="normal" in="SourceGraphic" in2="effect1_dropShadow_1_329" result="shape"/>
</filter>
<filter id="filter8_f_1_329" x="9" y="9" width="112" height="112" filterUnits="userSpaceOnUse" color-interpolation-filters="sRGB">
<feFlood flood-opacity="0" result="BackgroundImageFix"/>
<feBlend mode="normal" in="SourceGraphic" in2="BackgroundImageFix" result="shape"/>
<feGaussianBlur stdDeviation="16" result="effect1_foregroundBlur_1_329"/>
</filter>
<filter id="filter9_d_1_329" x="37" y="41" width="55.9993" height="55.9981" filterUnits="userSpaceOnUse" color-interpolation-filters="sRGB">
<feFlood flood-opacity="0" result="BackgroundImageFix"/>
<feColorMatrix in="SourceAlpha" type="matrix" values="0 0 0 0 0 0 0 0 0 0 0 0 0 0 0 0 0 0 127 0" result="hardAlpha"/>
<feOffset dy="4"/>
<feGaussianBlur stdDeviation="2"/>
<feComposite in2="hardAlpha" operator="out"/>
<feColorMatrix type="matrix" values="0 0 0 0 0 0 0 0 0 0 0 0 0 0 0 0 0 0 0.25 0"/>
<feBlend mode="normal" in2="BackgroundImageFix" result="effect1_dropShadow_1_329"/>
<feBlend mode="normal" in="SourceGraphic" in2="effect1_dropShadow_1_329" result="shape"/>
</filter>
<filter id="filter10_f_1_329" x="5" y="5" width="104" height="104" filterUnits="userSpaceOnUse" color-interpolation-filters="sRGB">
<feFlood flood-opacity="0" result="BackgroundImageFix"/>
<feBlend mode="normal" in="SourceGraphic" in2="BackgroundImageFix" result="shape"/>
<feGaussianBlur stdDeviation="14" result="effect1_foregroundBlur_1_329"/>
</filter>
<filter id="filter11_d_1_329" x="29" y="33" width="55.9993" height="55.9981" filterUnits="userSpaceOnUse" color-interpolation-filters="sRGB">
<feFlood flood-opacity="0" result="BackgroundImageFix"/>
<feColorMatrix in="SourceAlpha" type="matrix" values="0 0 0 0 0 0 0 0 0 0 0 0 0 0 0 0 0 0 127 0" result="hardAlpha"/>
<feOffset dy="4"/>
<feGaussianBlur stdDeviation="2"/>
<feComposite in2="hardAlpha" operator="out"/>
<feColorMatrix type="matrix" values="0 0 0 0 0 0 0 0 0 0 0 0 0 0 0 0 0 0 0.25 0"/>
<feBlend mode="normal" in2="BackgroundImageFix" result="effect1_dropShadow_1_329"/>
<feBlend mode="normal" in="SourceGraphic" in2="effect1_dropShadow_1_329" result="shape"/>
</filter>
<filter id="filter12_f_1_329" x="1" y="1" width="96" height="96" filterUnits="userSpaceOnUse" color-interpolation-filters="sRGB">
<feFlood flood-opacity="0" result="BackgroundImageFix"/>
<feBlend mode="normal" in="SourceGraphic" in2="BackgroundImageFix" result="shape"/>
<feGaussianBlur stdDeviation="12" result="effect1_foregroundBlur_1_329"/>
</filter>
<filter id="filter13_d_1_329" x="21" y="25" width="55.9993" height="55.9981" filterUnits="userSpaceOnUse" color-interpolation-filters="sRGB">
<feFlood flood-opacity="0" result="BackgroundImageFix"/>
<feColorMatrix in="SourceAlpha" type="matrix" values="0 0 0 0 0 0 0 0 0 0 0 0 0 0 0 0 0 0 127 0" result="hardAlpha"/>
<feOffset dy="4"/>
<feGaussianBlur stdDeviation="2"/>
<feComposite in2="hardAlpha" operator="out"/>
<feColorMatrix type="matrix" values="0 0 0 0 0 0 0 0 0 0 0 0 0 0 0 0 0 0 0.25 0"/>
<feBlend mode="normal" in2="BackgroundImageFix" result="effect1_dropShadow_1_329"/>
<feBlend mode="normal" in="SourceGraphic" in2="effect1_dropShadow_1_329" result="shape"/>
</filter>
<filter id="filter14_f_1_329" x="0" y="0" width="96" height="96" filterUnits="userSpaceOnUse" color-interpolation-filters="sRGB">
<feFlood flood-opacity="0" result="BackgroundImageFix"/>
<feBlend mode="normal" in="SourceGraphic" in2="BackgroundImageFix" result="shape"/>
<feGaussianBlur stdDeviation="12" result="effect1_foregroundBlur_1_329"/>
</filter>
<filter id="filter15_d_1_329" x="20" y="24" width="55.9993" height="55.9981" filterUnits="userSpaceOnUse" color-interpolation-filters="sRGB">
<feFlood flood-opacity="0" result="BackgroundImageFix"/>
<feColorMatrix in="SourceAlpha" type="matrix" values="0 0 0 0 0 0 0 0 0 0 0 0 0 0 0 0 0 0 127 0" result="hardAlpha"/>
<feOffset dy="4"/>
<feGaussianBlur stdDeviation="2"/>
<feComposite in2="hardAlpha" operator="out"/>
<feColorMatrix type="matrix" values="0 0 0 0 0 0 0 0 0 0 0 0 0 0 0 0 0 0 0.25 0"/>
<feBlend mode="normal" in2="BackgroundImageFix" result="effect1_dropShadow_1_329"/>
<feBlend mode="normal" in="SourceGraphic" in2="effect1_dropShadow_1_329" result="shape"/>
</filter>
<filter id="filter16_f_1_329" x="4" y="4" width="80" height="80" filterUnits="userSpaceOnUse" color-interpolation-filters="sRGB">
<feFlood flood-opacity="0" result="BackgroundImageFix"/>
<feBlend mode="normal" in="SourceGraphic" in2="BackgroundImageFix" result="shape"/>
<feGaussianBlur stdDeviation="8" result="effect1_foregroundBlur_1_329"/>
</filter>
<filter id="filter17_d_1_329" x="16" y="20" width="55.9993" height="55.9981" filterUnits="userSpaceOnUse" color-interpolation-filters="sRGB">
<feFlood flood-opacity="0" result="BackgroundImageFix"/>
<feColorMatrix in="SourceAlpha" type="matrix" values="0 0 0 0 0 0 0 0 0 0 0 0 0 0 0 0 0 0 127 0" result="hardAlpha"/>
<feOffset dy="4"/>
<feGaussianBlur stdDeviation="2"/>
<feComposite in2="hardAlpha" operator="out"/>
<feColorMatrix type="matrix" values="0 0 0 0 0 0 0 0 0 0 0 0 0 0 0 0 0 0 0.25 0"/>
<feBlend mode="normal" in2="BackgroundImageFix" result="effect1_dropShadow_1_329"/>
<feBlend mode="normal" in="SourceGraphic" in2="effect1_dropShadow_1_329" result="shape"/>
</filter>
<filter id="filter18_f_1_329" x="6" y="6" width="68" height="68" filterUnits="userSpaceOnUse" color-interpolation-filters="sRGB">
<feFlood flood-opacity="0" result="BackgroundImageFix"/>
<feBlend mode="normal" in="SourceGraphic" in2="BackgroundImageFix" result="shape"/>
<feGaussianBlur stdDeviation="5" result="effect1_foregroundBlur_1_329"/>
</filter>
<filter id="filter19_d_1_329" x="12" y="16" width="55.9993" height="55.9981" filterUnits="userSpaceOnUse" color-interpolation-filters="sRGB">
<feFlood flood-opacity="0" result="BackgroundImageFix"/>
<feColorMatrix in="SourceAlpha" type="matrix" values="0 0 0 0 0 0 0 0 0 0 0 0 0 0 0 0 0 0 127 0" result="hardAlpha"/>
<feOffset dy="4"/>
<feGaussianBlur stdDeviation="2"/>
<feComposite in2="hardAlpha" operator="out"/>
<feColorMatrix type="matrix" values="0 0 0 0 0 0 0 0 0 0 0 0 0 0 0 0 0 0 0.25 0"/>
<feBlend mode="normal" in2="BackgroundImageFix" result="effect1_dropShadow_1_329"/>
<feBlend mode="normal" in="SourceGraphic" in2="effect1_dropShadow_1_329" result="shape"/>
</filter>
<filter id="filter20_f_1_329" x="8" y="8" width="60" height="60" filterUnits="userSpaceOnUse" color-interpolation-filters="sRGB">
<feFlood flood-opacity="0" result="BackgroundImageFix"/>
<feBlend mode="normal" in="SourceGraphic" in2="BackgroundImageFix" result="shape"/>
<feGaussianBlur stdDeviation="3" result="effect1_foregroundBlur_1_329"/>
</filter>
<filter id="filter21_d_1_329" x="10" y="14" width="55.9993" height="55.9981" filterUnits="userSpaceOnUse" color-interpolation-filters="sRGB">
<feFlood flood-opacity="0" result="BackgroundImageFix"/>
<feColorMatrix in="SourceAlpha" type="matrix" values="0 0 0 0 0 0 0 0 0 0 0 0 0 0 0 0 0 0 127 0" result="hardAlpha"/>
<feOffset dy="4"/>
<feGaussianBlur stdDeviation="2"/>
<feComposite in2="hardAlpha" operator="out"/>
<feColorMatrix type="matrix" values="0 0 0 0 0 0 0 0 0 0 0 0 0 0 0 0 0 0 0.25 0"/>
<feBlend mode="normal" in2="BackgroundImageFix" result="effect1_dropShadow_1_329"/>
<feBlend mode="normal" in="SourceGraphic" in2="effect1_dropShadow_1_329" result="shape"/>
</filter>
<filter id="filter22_f_1_329" x="8" y="8" width="56" height="56" filterUnits="userSpaceOnUse" color-interpolation-filters="sRGB">
<feFlood flood-opacity="0" result="BackgroundImageFix"/>
<feBlend mode="normal" in="SourceGraphic" in2="BackgroundImageFix" result="shape"/>
<feGaussianBlur stdDeviation="2" result="effect1_foregroundBlur_1_329"/>
</filter>
<filter id="filter23_d_1_329" x="8" y="12" width="55.9993" height="55.9981" filterUnits="userSpaceOnUse" color-interpolation-filters="sRGB">
<feFlood flood-opacity="0" result="BackgroundImageFix"/>
<feColorMatrix in="SourceAlpha" type="matrix" values="0 0 0 0 0 0 0 0 0 0 0 0 0 0 0 0 0 0 127 0" result="hardAlpha"/>
<feOffset dy="4"/>
<feGaussianBlur stdDeviation="2"/>
<feComposite in2="hardAlpha" operator="out"/>
<feColorMatrix type="matrix" values="0 0 0 0 0 0 0 0 0 0 0 0 0 0 0 0 0 0 0.25 0"/>
<feBlend mode="normal" in2="BackgroundImageFix" result="effect1_dropShadow_1_329"/>
<feBlend mode="normal" in="SourceGraphic" in2="effect1_dropShadow_1_329" result="shape"/>
</filter>
<filter id="filter24_f_1_329" x="8" y="8" width="54" height="54" filterUnits="userSpaceOnUse" color-interpolation-filters="sRGB">
<feFlood flood-opacity="0" result="BackgroundImageFix"/>
<feBlend mode="normal" in="SourceGraphic" in2="BackgroundImageFix" result="shape"/>
<feGaussianBlur stdDeviation="1.5" result="effect1_foregroundBlur_1_329"/>
</filter>
<filter id="filter25_d_1_329" x="7" y="11" width="55.9993" height="55.9981" filterUnits="userSpaceOnUse" color-interpolation-filters="sRGB">
<feFlood flood-opacity="0" result="BackgroundImageFix"/>
<feColorMatrix in="SourceAlpha" type="matrix" values="0 0 0 0 0 0 0 0 0 0 0 0 0 0 0 0 0 0 127 0" result="hardAlpha"/>
<feOffset dy="4"/>
<feGaussianBlur stdDeviation="2"/>
<feComposite in2="hardAlpha" operator="out"/>
<feColorMatrix type="matrix" values="0 0 0 0 0 0 0 0 0 0 0 0 0 0 0 0 0 0 0.25 0"/>
<feBlend mode="normal" in2="BackgroundImageFix" result="effect1_dropShadow_1_329"/>
<feBlend mode="normal" in="SourceGraphic" in2="effect1_dropShadow_1_329" result="shape"/>
</filter>
<filter id="filter26_f_1_329" x="8" y="8" width="52" height="52" filterUnits="userSpaceOnUse" color-interpolation-filters="sRGB">
<feFlood flood-opacity="0" result="BackgroundImageFix"/>
<feBlend mode="normal" in="SourceGraphic" in2="BackgroundImageFix" result="shape"/>
<feGaussianBlur stdDeviation="1" result="effect1_foregroundBlur_1_329"/>
</filter>
<filter id="filter27_d_1_329" x="6" y="10" width="55.9993" height="55.9981" filterUnits="userSpaceOnUse" color-interpolation-filters="sRGB">
<feFlood flood-opacity="0" result="BackgroundImageFix"/>
<feColorMatrix in="SourceAlpha" type="matrix" values="0 0 0 0 0 0 0 0 0 0 0 0 0 0 0 0 0 0 127 0" result="hardAlpha"/>
<feOffset dy="4"/>
<feGaussianBlur stdDeviation="2"/>
<feComposite in2="hardAlpha" operator="out"/>
<feColorMatrix type="matrix" values="0 0 0 0 0 0 0 0 0 0 0 0 0 0 0 0 0 0 0.25 0"/>
<feBlend mode="normal" in2="BackgroundImageFix" result="effect1_dropShadow_1_329"/>
<feBlend mode="normal" in="SourceGraphic" in2="effect1_dropShadow_1_329" result="shape"/>
</filter>
<filter id="filter28_f_1_329" x="8.5" y="8.5" width="50" height="50" filterUnits="userSpaceOnUse" color-interpolation-filters="sRGB">
<feFlood flood-opacity="0" result="BackgroundImageFix"/>
<feBlend mode="normal" in="SourceGraphic" in2="BackgroundImageFix" result="shape"/>
<feGaussianBlur stdDeviation="0.5" result="effect1_foregroundBlur_1_329"/>
</filter>
<filter id="filter29_d_1_329" x="5.5" y="9.5" width="55.9993" height="55.9981" filterUnits="userSpaceOnUse" color-interpolation-filters="sRGB">
<feFlood flood-opacity="0" result="BackgroundImageFix"/>
<feColorMatrix in="SourceAlpha" type="matrix" values="0 0 0 0 0 0 0 0 0 0 0 0 0 0 0 0 0 0 127 0" result="hardAlpha"/>
<feOffset dy="4"/>
<feGaussianBlur stdDeviation="2"/>
<feComposite in2="hardAlpha" operator="out"/>
<feColorMatrix type="matrix" values="0 0 0 0 0 0 0 0 0 0 0 0 0 0 0 0 0 0 0.25 0"/>
<feBlend mode="normal" in2="BackgroundImageFix" result="effect1_dropShadow_1_329"/>
<feBlend mode="normal" in="SourceGraphic" in2="effect1_dropShadow_1_329" result="shape"/>
</filter>
<filter id="filter30_ii_1_329" x="8.5" y="8.5" width="49.5" height="49.5" filterUnits="userSpaceOnUse" color-interpolation-filters="sRGB">
<feFlood flood-opacity="0" result="BackgroundImageFix"/>
<feBlend mode="normal" in="SourceGraphic" in2="BackgroundImageFix" result="shape"/>
<feColorMatrix in="SourceAlpha" type="matrix" values="0 0 0 0 0 0 0 0 0 0 0 0 0 0 0 0 0 0 127 0" result="hardAlpha"/>
<feOffset dx="-0.5" dy="-0.5"/>
<feGaussianBlur stdDeviation="0.5"/>
<feComposite in2="hardAlpha" operator="arithmetic" k2="-1" k3="1"/>
<feColorMatrix type="matrix" values="0 0 0 0 0.669989 0 0 0 0 0.430208 0 0 0 0 0.7375 0 0 0 1 0"/>
<feBlend mode="normal" in2="shape" result="effect1_innerShadow_1_329"/>
<feColorMatrix in="SourceAlpha" type="matrix" values="0 0 0 0 0 0 0 0 0 0 0 0 0 0 0 0 0 0 127 0" result="hardAlpha"/>
<feOffset dx="1" dy="1"/>
<feGaussianBlur stdDeviation="0.5"/>
<feComposite in2="hardAlpha" operator="arithmetic" k2="-1" k3="1"/>
<feColorMatrix type="matrix" values="0 0 0 0 1 0 0 0 0 1 0 0 0 0 1 0 0 0 1 0"/>
<feBlend mode="soft-light" in2="effect1_innerShadow_1_329" result="effect2_innerShadow_1_329"/>
</filter>
<linearGradient id="paint0_linear_1_329" x1="32.9997" y1="9" x2="32.9997" y2="56.9981" gradientUnits="userSpaceOnUse">
<stop stop-color="white"/>
<stop offset="1" stop-color="#F5C4FF"/>
</linearGradient>
</defs>
</svg>
