<svg width="154" height="95" viewBox="0 0 154 95" fill="none" xmlns="http://www.w3.org/2000/svg">
<g opacity="0.05" filter="url(#filter0_f_1_322)">
<mask id="mask0_1_322" style="mask-type:alpha" maskUnits="userSpaceOnUse" x="61" y="61" width="48" height="48">
<path fill-rule="evenodd" clip-rule="evenodd" d="M62.0144 64.9182C61.285 66.2908 61.2313 67.5844 61.1239 70.1715C61.0497 71.9578 61 73.9844 61 76.2077C61 78.7642 61.0657 81.0607 61.1588 83.0308C61.2589 85.1505 61.309 86.2104 62.0429 87.5764C62.5724 88.5618 63.8994 89.8758 64.89 90.3956C66.263 91.1161 67.3059 91.1551 69.3916 91.2331C72.203 91.3382 75.9771 91.4154 81 91.4154C86.0695 91.4154 89.867 91.3368 92.6864 91.2302C94.7285 91.1529 95.7496 91.1143 97.1227 90.3928C98.1052 89.8765 99.4442 88.5489 99.9688 87.5708C100.702 86.2038 100.75 85.1719 100.845 83.108C100.936 81.1473 101 78.8351 101 76.2077C101 73.9217 100.952 71.8743 100.879 70.0895C100.777 67.5618 100.726 66.298 99.997 64.9242C99.4365 63.8673 98.2128 62.6443 97.1556 62.0843C95.7814 61.3565 94.4867 61.3047 91.8971 61.2011C89.0324 61.0865 85.4098 61 81 61C76.6317 61 73.0359 61.0848 70.184 61.1979C67.5484 61.3023 66.2306 61.3545 64.8566 62.0813C63.7913 62.6447 62.5798 63.854 62.0144 64.9182ZM68.0547 67.371C67.3658 66.8792 66.4042 67.0326 65.9067 67.7134C65.4092 68.3943 65.5643 69.3449 66.2531 69.8367L76.4963 77.1494C79.1849 79.0689 82.8152 79.0689 85.5038 77.1494L95.7469 69.8367C96.4357 69.3449 96.5909 68.3943 96.0934 67.7134C95.5959 67.0326 94.6342 66.8792 93.9454 67.371L83.7023 74.6837C82.0892 75.8354 79.9109 75.8354 78.2978 74.6837L68.0547 67.371Z" fill="white"/>
</mask>
<g mask="url(#mask0_1_322)">
<g filter="url(#filter1_d_1_322)">
<rect x="61" y="61" width="47.9993" height="47.9981" fill="#01154A"/>
</g>
</g>
</g>
<g opacity="0.1" filter="url(#filter2_f_1_322)">
<mask id="mask1_1_322" style="mask-type:alpha" maskUnits="userSpaceOnUse" x="57" y="57" width="48" height="48">
<path fill-rule="evenodd" clip-rule="evenodd" d="M58.0144 60.9182C57.285 62.2908 57.2313 63.5844 57.1239 66.1715C57.0497 67.9578 57 69.9844 57 72.2077C57 74.7642 57.0657 77.0607 57.1588 79.0308C57.2589 81.1505 57.309 82.2104 58.0429 83.5764C58.5724 84.5618 59.8994 85.8758 60.89 86.3956C62.263 87.1161 63.3059 87.1551 65.3916 87.2331C68.203 87.3382 71.9771 87.4154 77 87.4154C82.0695 87.4154 85.867 87.3368 88.6864 87.2302C90.7285 87.1529 91.7496 87.1143 93.1227 86.3928C94.1052 85.8765 95.4442 84.5489 95.9688 83.5708C96.7019 82.2038 96.7497 81.1719 96.8453 79.108C96.9362 77.1473 97 74.8351 97 72.2077C97 69.9217 96.9517 67.8743 96.8793 66.0895C96.7768 63.5618 96.7256 62.298 95.997 60.9242C95.4365 59.8673 94.2128 58.6443 93.1556 58.0843C91.7814 57.3565 90.4867 57.3047 87.8971 57.2011C85.0324 57.0865 81.4098 57 77 57C72.6317 57 69.0359 57.0848 66.184 57.1979C63.5484 57.3023 62.2306 57.3545 60.8566 58.0813C59.7913 58.6447 58.5798 59.854 58.0144 60.9182ZM64.0547 63.371C63.3658 62.8792 62.4042 63.0326 61.9067 63.7134C61.4092 64.3943 61.5643 65.3449 62.2531 65.8367L72.4963 73.1494C75.1849 75.0689 78.8152 75.0689 81.5038 73.1494L91.7469 65.8367C92.4357 65.3449 92.5909 64.3943 92.0934 63.7134C91.5959 63.0326 90.6342 62.8792 89.9454 63.371L79.7023 70.6837C78.0892 71.8354 75.9109 71.8354 74.2978 70.6837L64.0547 63.371Z" fill="white"/>
</mask>
<g mask="url(#mask1_1_322)">
<g filter="url(#filter3_d_1_322)">
<rect x="57" y="57" width="47.9993" height="47.9981" fill="#01154A"/>
</g>
</g>
</g>
<g opacity="0.15" filter="url(#filter4_f_1_322)">
<mask id="mask2_1_322" style="mask-type:alpha" maskUnits="userSpaceOnUse" x="53" y="53" width="48" height="48">
<path fill-rule="evenodd" clip-rule="evenodd" d="M54.0144 56.9182C53.285 58.2908 53.2313 59.5844 53.1239 62.1715C53.0497 63.9578 53 65.9844 53 68.2077C53 70.7642 53.0657 73.0607 53.1588 75.0308C53.2589 77.1505 53.309 78.2104 54.0429 79.5764C54.5724 80.5618 55.8994 81.8758 56.89 82.3956C58.263 83.1161 59.3059 83.1551 61.3916 83.2331C64.203 83.3382 67.9771 83.4154 73 83.4154C78.0695 83.4154 81.867 83.3368 84.6864 83.2302C86.7285 83.1529 87.7496 83.1143 89.1227 82.3928C90.1052 81.8765 91.4442 80.5489 91.9688 79.5708C92.7019 78.2038 92.7497 77.1719 92.8453 75.108C92.9362 73.1473 93 70.8351 93 68.2077C93 65.9217 92.9517 63.8743 92.8793 62.0895C92.7768 59.5618 92.7256 58.298 91.997 56.9242C91.4365 55.8673 90.2128 54.6443 89.1556 54.0843C87.7814 53.3565 86.4867 53.3047 83.8971 53.2011C81.0324 53.0865 77.4098 53 73 53C68.6317 53 65.0359 53.0848 62.184 53.1979C59.5484 53.3023 58.2306 53.3545 56.8566 54.0813C55.7913 54.6447 54.5798 55.854 54.0144 56.9182ZM60.0547 59.371C59.3658 58.8792 58.4042 59.0326 57.9067 59.7134C57.4092 60.3943 57.5643 61.3449 58.2531 61.8367L68.4963 69.1494C71.1849 71.0689 74.8152 71.0689 77.5038 69.1494L87.7469 61.8367C88.4357 61.3449 88.5909 60.3943 88.0934 59.7134C87.5959 59.0326 86.6342 58.8792 85.9454 59.371L75.7023 66.6837C74.0892 67.8354 71.9109 67.8354 70.2978 66.6837L60.0547 59.371Z" fill="white"/>
</mask>
<g mask="url(#mask2_1_322)">
<g filter="url(#filter5_d_1_322)">
<rect x="53" y="53" width="47.9993" height="47.9981" fill="#01154A"/>
</g>
</g>
</g>
<g opacity="0.2" filter="url(#filter6_f_1_322)">
<mask id="mask3_1_322" style="mask-type:alpha" maskUnits="userSpaceOnUse" x="49" y="49" width="48" height="48">
<path fill-rule="evenodd" clip-rule="evenodd" d="M50.0144 52.9182C49.285 54.2908 49.2313 55.5844 49.1239 58.1715C49.0497 59.9578 49 61.9844 49 64.2077C49 66.7642 49.0657 69.0607 49.1588 71.0308C49.2589 73.1505 49.309 74.2104 50.0429 75.5764C50.5724 76.5618 51.8994 77.8758 52.89 78.3956C54.263 79.1161 55.3059 79.1551 57.3916 79.2331C60.203 79.3382 63.9771 79.4154 69 79.4154C74.0695 79.4154 77.867 79.3368 80.6864 79.2302C82.7285 79.1529 83.7496 79.1143 85.1227 78.3928C86.1052 77.8765 87.4442 76.5489 87.9688 75.5708C88.7019 74.2038 88.7497 73.1719 88.8453 71.108C88.9362 69.1473 89 66.8351 89 64.2077C89 61.9217 88.9517 59.8743 88.8793 58.0895C88.7768 55.5618 88.7256 54.298 87.997 52.9242C87.4365 51.8673 86.2128 50.6443 85.1556 50.0843C83.7814 49.3565 82.4867 49.3047 79.8971 49.2011C77.0324 49.0865 73.4098 49 69 49C64.6317 49 61.0359 49.0848 58.184 49.1979C55.5484 49.3023 54.2306 49.3545 52.8566 50.0813C51.7913 50.6447 50.5798 51.854 50.0144 52.9182ZM56.0547 55.371C55.3658 54.8792 54.4042 55.0326 53.9067 55.7134C53.4092 56.3943 53.5643 57.3449 54.2531 57.8367L64.4963 65.1494C67.1849 67.0689 70.8152 67.0689 73.5038 65.1494L83.7469 57.8367C84.4357 57.3449 84.5909 56.3943 84.0934 55.7134C83.5959 55.0326 82.6342 54.8792 81.9454 55.371L71.7023 62.6837C70.0892 63.8354 67.9109 63.8354 66.2978 62.6837L56.0547 55.371Z" fill="white"/>
</mask>
<g mask="url(#mask3_1_322)">
<g filter="url(#filter7_d_1_322)">
<rect x="49" y="49" width="47.9993" height="47.9981" fill="#01154A"/>
</g>
</g>
</g>
<g opacity="0.25" filter="url(#filter8_f_1_322)">
<mask id="mask4_1_322" style="mask-type:alpha" maskUnits="userSpaceOnUse" x="41" y="41" width="48" height="48">
<path fill-rule="evenodd" clip-rule="evenodd" d="M42.0144 44.9182C41.285 46.2908 41.2313 47.5844 41.1239 50.1715C41.0497 51.9578 41 53.9844 41 56.2077C41 58.7642 41.0657 61.0607 41.1588 63.0308C41.2589 65.1505 41.309 66.2104 42.0429 67.5764C42.5724 68.5618 43.8994 69.8758 44.89 70.3956C46.263 71.1161 47.3059 71.1551 49.3916 71.2331C52.203 71.3382 55.9771 71.4154 61 71.4154C66.0695 71.4154 69.867 71.3368 72.6864 71.2302C74.7285 71.1529 75.7496 71.1143 77.1227 70.3928C78.1052 69.8765 79.4442 68.5489 79.9688 67.5708C80.7019 66.2038 80.7497 65.1719 80.8453 63.108C80.9362 61.1473 81 58.8351 81 56.2077C81 53.9217 80.9517 51.8743 80.8793 50.0895C80.7768 47.5618 80.7256 46.298 79.997 44.9242C79.4365 43.8673 78.2128 42.6443 77.1556 42.0843C75.7814 41.3565 74.4867 41.3047 71.8971 41.2011C69.0324 41.0865 65.4098 41 61 41C56.6317 41 53.0359 41.0848 50.184 41.1979C47.5484 41.3023 46.2306 41.3545 44.8566 42.0813C43.7913 42.6447 42.5798 43.854 42.0144 44.9182ZM48.0547 47.371C47.3658 46.8792 46.4042 47.0326 45.9067 47.7134C45.4092 48.3943 45.5643 49.3449 46.2531 49.8367L56.4963 57.1494C59.1849 59.0689 62.8152 59.0689 65.5038 57.1494L75.7469 49.8367C76.4357 49.3449 76.5909 48.3943 76.0934 47.7134C75.5959 47.0326 74.6342 46.8792 73.9454 47.371L63.7023 54.6837C62.0892 55.8354 59.9109 55.8354 58.2978 54.6837L48.0547 47.371Z" fill="white"/>
</mask>
<g mask="url(#mask4_1_322)">
<g filter="url(#filter9_d_1_322)">
<rect x="41" y="41" width="47.9993" height="47.9981" fill="#01154A"/>
</g>
</g>
</g>
<g opacity="0.3" filter="url(#filter10_f_1_322)">
<mask id="mask5_1_322" style="mask-type:alpha" maskUnits="userSpaceOnUse" x="33" y="33" width="48" height="48">
<path fill-rule="evenodd" clip-rule="evenodd" d="M34.0144 36.9182C33.285 38.2908 33.2313 39.5844 33.1239 42.1715C33.0497 43.9578 33 45.9844 33 48.2077C33 50.7642 33.0657 53.0607 33.1588 55.0308C33.2589 57.1505 33.309 58.2104 34.0429 59.5764C34.5724 60.5618 35.8994 61.8758 36.89 62.3956C38.263 63.1161 39.3059 63.1551 41.3916 63.2331C44.203 63.3382 47.9771 63.4154 53 63.4154C58.0695 63.4154 61.867 63.3368 64.6864 63.2302C66.7285 63.1529 67.7496 63.1143 69.1227 62.3928C70.1052 61.8765 71.4442 60.5489 71.9688 59.5708C72.7019 58.2038 72.7497 57.1719 72.8453 55.108C72.9362 53.1473 73 50.8351 73 48.2077C73 45.9217 72.9517 43.8743 72.8793 42.0895C72.7768 39.5618 72.7256 38.298 71.997 36.9242C71.4365 35.8673 70.2128 34.6443 69.1556 34.0843C67.7814 33.3565 66.4867 33.3047 63.8971 33.2011C61.0324 33.0865 57.4098 33 53 33C48.6317 33 45.0359 33.0848 42.184 33.1979C39.5484 33.3023 38.2306 33.3545 36.8566 34.0813C35.7913 34.6447 34.5798 35.854 34.0144 36.9182ZM40.0547 39.371C39.3658 38.8792 38.4042 39.0326 37.9067 39.7134C37.4092 40.3943 37.5643 41.3449 38.2531 41.8367L48.4963 49.1494C51.1849 51.0689 54.8152 51.0689 57.5038 49.1494L67.7469 41.8367C68.4357 41.3449 68.5909 40.3943 68.0934 39.7134C67.5959 39.0326 66.6342 38.8792 65.9454 39.371L55.7023 46.6837C54.0892 47.8354 51.9109 47.8354 50.2978 46.6837L40.0547 39.371Z" fill="white"/>
</mask>
<g mask="url(#mask5_1_322)">
<g filter="url(#filter11_d_1_322)">
<rect x="33" y="33" width="47.9993" height="47.9981" fill="#01154A"/>
</g>
</g>
</g>
<g opacity="0.35" filter="url(#filter12_f_1_322)">
<mask id="mask6_1_322" style="mask-type:alpha" maskUnits="userSpaceOnUse" x="25" y="25" width="48" height="48">
<path fill-rule="evenodd" clip-rule="evenodd" d="M26.0144 28.9182C25.285 30.2908 25.2313 31.5844 25.1239 34.1715C25.0497 35.9578 25 37.9844 25 40.2077C25 42.7642 25.0657 45.0607 25.1588 47.0308C25.2589 49.1505 25.309 50.2104 26.0429 51.5764C26.5724 52.5618 27.8994 53.8758 28.89 54.3956C30.263 55.1161 31.3059 55.1551 33.3916 55.2331C36.203 55.3382 39.9771 55.4154 45 55.4154C50.0695 55.4154 53.867 55.3368 56.6864 55.2302C58.7285 55.1529 59.7496 55.1143 61.1227 54.3928C62.1052 53.8765 63.4442 52.5489 63.9688 51.5708C64.7019 50.2038 64.7497 49.1719 64.8453 47.108C64.9362 45.1473 65 42.8351 65 40.2077C65 37.9217 64.9517 35.8743 64.8793 34.0895C64.7768 31.5618 64.7256 30.298 63.997 28.9242C63.4365 27.8673 62.2128 26.6443 61.1556 26.0843C59.7814 25.3565 58.4867 25.3047 55.8971 25.2011C53.0324 25.0865 49.4098 25 45 25C40.6317 25 37.0359 25.0848 34.184 25.1979C31.5484 25.3023 30.2306 25.3545 28.8566 26.0813C27.7913 26.6447 26.5798 27.854 26.0144 28.9182ZM32.0547 31.371C31.3658 30.8792 30.4042 31.0326 29.9067 31.7134C29.4092 32.3943 29.5643 33.3449 30.2531 33.8367L40.4963 41.1494C43.1849 43.0689 46.8152 43.0689 49.5038 41.1494L59.7469 33.8367C60.4357 33.3449 60.5909 32.3943 60.0934 31.7134C59.5959 31.0326 58.6342 30.8792 57.9454 31.371L47.7023 38.6837C46.0892 39.8354 43.9109 39.8354 42.2978 38.6837L32.0547 31.371Z" fill="white"/>
</mask>
<g mask="url(#mask6_1_322)">
<g filter="url(#filter13_d_1_322)">
<rect x="25" y="25" width="47.9993" height="47.9981" fill="#01154A"/>
</g>
</g>
</g>
<g opacity="0.4" filter="url(#filter14_f_1_322)">
<mask id="mask7_1_322" style="mask-type:alpha" maskUnits="userSpaceOnUse" x="24" y="24" width="48" height="48">
<path fill-rule="evenodd" clip-rule="evenodd" d="M25.0144 27.9182C24.285 29.2908 24.2313 30.5844 24.1239 33.1715C24.0497 34.9578 24 36.9844 24 39.2077C24 41.7642 24.0657 44.0607 24.1588 46.0308C24.2589 48.1505 24.309 49.2104 25.0429 50.5764C25.5724 51.5618 26.8994 52.8758 27.89 53.3956C29.263 54.1161 30.3059 54.1551 32.3916 54.2331C35.203 54.3382 38.9771 54.4154 44 54.4154C49.0695 54.4154 52.867 54.3368 55.6864 54.2302C57.7285 54.1529 58.7496 54.1143 60.1227 53.3928C61.1052 52.8765 62.4442 51.5489 62.9688 50.5708C63.7019 49.2038 63.7497 48.1719 63.8453 46.108C63.9362 44.1473 64 41.8351 64 39.2077C64 36.9217 63.9517 34.8743 63.8793 33.0895C63.7768 30.5618 63.7256 29.298 62.997 27.9242C62.4365 26.8673 61.2128 25.6443 60.1556 25.0843C58.7814 24.3565 57.4867 24.3047 54.8971 24.2011C52.0324 24.0865 48.4098 24 44 24C39.6317 24 36.0359 24.0848 33.184 24.1979C30.5484 24.3023 29.2306 24.3545 27.8566 25.0813C26.7913 25.6447 25.5798 26.854 25.0144 27.9182ZM31.0547 30.371C30.3658 29.8792 29.4042 30.0326 28.9067 30.7134C28.4092 31.3943 28.5643 32.3449 29.2531 32.8367L39.4963 40.1494C42.1849 42.0689 45.8152 42.0689 48.5038 40.1494L58.7469 32.8367C59.4357 32.3449 59.5909 31.3943 59.0934 30.7134C58.5959 30.0326 57.6342 29.8792 56.9454 30.371L46.7023 37.6837C45.0892 38.8354 42.9109 38.8354 41.2978 37.6837L31.0547 30.371Z" fill="white"/>
</mask>
<g mask="url(#mask7_1_322)">
<g filter="url(#filter15_d_1_322)">
<rect x="24" y="24" width="47.9993" height="47.9981" fill="#01154A"/>
</g>
</g>
</g>
<g opacity="0.45" filter="url(#filter16_f_1_322)">
<mask id="mask8_1_322" style="mask-type:alpha" maskUnits="userSpaceOnUse" x="20" y="20" width="48" height="48">
<path fill-rule="evenodd" clip-rule="evenodd" d="M21.0144 23.9182C20.285 25.2908 20.2313 26.5844 20.1239 29.1715C20.0497 30.9578 20 32.9844 20 35.2077C20 37.7642 20.0657 40.0607 20.1588 42.0308C20.2589 44.1505 20.309 45.2104 21.0429 46.5764C21.5724 47.5618 22.8994 48.8758 23.89 49.3956C25.263 50.1161 26.3059 50.1551 28.3916 50.2331C31.203 50.3382 34.9771 50.4154 40 50.4154C45.0695 50.4154 48.867 50.3368 51.6864 50.2302C53.7285 50.1529 54.7496 50.1143 56.1227 49.3928C57.1052 48.8765 58.4442 47.5489 58.9688 46.5708C59.7019 45.2038 59.7497 44.1719 59.8453 42.108C59.9362 40.1473 60 37.8351 60 35.2077C60 32.9217 59.9517 30.8743 59.8793 29.0895C59.7768 26.5618 59.7256 25.298 58.997 23.9242C58.4365 22.8673 57.2128 21.6443 56.1556 21.0843C54.7814 20.3565 53.4867 20.3047 50.8971 20.2011C48.0324 20.0865 44.4098 20 40 20C35.6317 20 32.0359 20.0848 29.184 20.1979C26.5484 20.3023 25.2306 20.3545 23.8566 21.0813C22.7913 21.6447 21.5798 22.854 21.0144 23.9182ZM27.0547 26.371C26.3658 25.8792 25.4042 26.0326 24.9067 26.7134C24.4092 27.3943 24.5643 28.3449 25.2531 28.8367L35.4963 36.1494C38.1849 38.0689 41.8152 38.0689 44.5038 36.1494L54.7469 28.8367C55.4357 28.3449 55.5909 27.3943 55.0934 26.7134C54.5959 26.0326 53.6342 25.8792 52.9454 26.371L42.7023 33.6837C41.0892 34.8354 38.9109 34.8354 37.2978 33.6837L27.0547 26.371Z" fill="white"/>
</mask>
<g mask="url(#mask8_1_322)">
<g filter="url(#filter17_d_1_322)">
<rect x="20" y="20" width="47.9993" height="47.9981" fill="#01154A"/>
</g>
</g>
</g>
<g opacity="0.5" filter="url(#filter18_f_1_322)">
<mask id="mask9_1_322" style="mask-type:alpha" maskUnits="userSpaceOnUse" x="16" y="16" width="48" height="48">
<path fill-rule="evenodd" clip-rule="evenodd" d="M17.0144 19.9182C16.285 21.2908 16.2313 22.5844 16.1239 25.1715C16.0497 26.9578 16 28.9844 16 31.2077C16 33.7642 16.0657 36.0607 16.1588 38.0308C16.2589 40.1505 16.309 41.2104 17.0429 42.5764C17.5724 43.5618 18.8994 44.8758 19.89 45.3956C21.263 46.1161 22.3059 46.1551 24.3916 46.2331C27.203 46.3382 30.9771 46.4154 36 46.4154C41.0695 46.4154 44.867 46.3368 47.6864 46.2302C49.7285 46.1529 50.7496 46.1143 52.1227 45.3928C53.1052 44.8765 54.4442 43.5489 54.9688 42.5708C55.7019 41.2038 55.7497 40.1719 55.8453 38.108C55.9362 36.1473 56 33.8351 56 31.2077C56 28.9217 55.9517 26.8743 55.8793 25.0895C55.7768 22.5618 55.7256 21.298 54.997 19.9242C54.4365 18.8673 53.2128 17.6443 52.1556 17.0843C50.7814 16.3565 49.4867 16.3047 46.8971 16.2011C44.0324 16.0865 40.4098 16 36 16C31.6317 16 28.0359 16.0848 25.184 16.1979C22.5484 16.3023 21.2306 16.3545 19.8566 17.0813C18.7913 17.6447 17.5798 18.854 17.0144 19.9182ZM23.0547 22.371C22.3658 21.8792 21.4042 22.0326 20.9067 22.7134C20.4092 23.3943 20.5643 24.3449 21.2531 24.8367L31.4963 32.1494C34.1849 34.0689 37.8152 34.0689 40.5038 32.1494L50.7469 24.8367C51.4357 24.3449 51.5909 23.3943 51.0934 22.7134C50.5959 22.0326 49.6342 21.8792 48.9454 22.371L38.7023 29.6837C37.0892 30.8354 34.9109 30.8354 33.2978 29.6837L23.0547 22.371Z" fill="white"/>
</mask>
<g mask="url(#mask9_1_322)">
<g filter="url(#filter19_d_1_322)">
<rect x="16" y="16" width="47.9993" height="47.9981" fill="#01154A"/>
</g>
</g>
</g>
<g opacity="0.55" filter="url(#filter20_f_1_322)">
<mask id="mask10_1_322" style="mask-type:alpha" maskUnits="userSpaceOnUse" x="14" y="14" width="48" height="48">
<path fill-rule="evenodd" clip-rule="evenodd" d="M15.0144 17.9182C14.285 19.2908 14.2313 20.5844 14.1239 23.1715C14.0497 24.9578 14 26.9844 14 29.2077C14 31.7642 14.0657 34.0607 14.1588 36.0308C14.2589 38.1505 14.309 39.2104 15.0429 40.5764C15.5724 41.5618 16.8994 42.8758 17.89 43.3956C19.263 44.1161 20.3059 44.1551 22.3916 44.2331C25.203 44.3382 28.9771 44.4154 34 44.4154C39.0695 44.4154 42.867 44.3368 45.6864 44.2302C47.7285 44.1529 48.7496 44.1143 50.1227 43.3928C51.1052 42.8765 52.4442 41.5489 52.9688 40.5708C53.7019 39.2038 53.7497 38.1719 53.8453 36.108C53.9362 34.1473 54 31.8351 54 29.2077C54 26.9217 53.9517 24.8743 53.8793 23.0895C53.7768 20.5618 53.7256 19.298 52.997 17.9242C52.4365 16.8673 51.2128 15.6443 50.1556 15.0843C48.7814 14.3565 47.4867 14.3047 44.8971 14.2011C42.0324 14.0865 38.4098 14 34 14C29.6317 14 26.0359 14.0848 23.184 14.1979C20.5484 14.3023 19.2306 14.3545 17.8566 15.0813C16.7913 15.6447 15.5798 16.854 15.0144 17.9182ZM21.0547 20.371C20.3658 19.8792 19.4042 20.0326 18.9067 20.7134C18.4092 21.3943 18.5643 22.3449 19.2531 22.8367L29.4963 30.1494C32.1849 32.0689 35.8152 32.0689 38.5038 30.1494L48.7469 22.8367C49.4357 22.3449 49.5909 21.3943 49.0934 20.7134C48.5959 20.0326 47.6342 19.8792 46.9454 20.371L36.7023 27.6837C35.0892 28.8354 32.9109 28.8354 31.2978 27.6837L21.0547 20.371Z" fill="white"/>
</mask>
<g mask="url(#mask10_1_322)">
<g filter="url(#filter21_d_1_322)">
<rect x="14" y="14" width="47.9993" height="47.9981" fill="#01154A"/>
</g>
</g>
</g>
<g opacity="0.6" filter="url(#filter22_f_1_322)">
<mask id="mask11_1_322" style="mask-type:alpha" maskUnits="userSpaceOnUse" x="12" y="12" width="48" height="48">
<path fill-rule="evenodd" clip-rule="evenodd" d="M13.0144 15.9182C12.285 17.2908 12.2313 18.5844 12.1239 21.1715C12.0497 22.9578 12 24.9844 12 27.2077C12 29.7642 12.0657 32.0607 12.1588 34.0308C12.2589 36.1505 12.309 37.2104 13.0429 38.5764C13.5724 39.5618 14.8994 40.8758 15.89 41.3956C17.263 42.1161 18.3059 42.1551 20.3916 42.2331C23.203 42.3382 26.9771 42.4154 32 42.4154C37.0695 42.4154 40.867 42.3368 43.6864 42.2302C45.7285 42.1529 46.7496 42.1143 48.1227 41.3928C49.1052 40.8765 50.4442 39.5489 50.9688 38.5708C51.7019 37.2038 51.7497 36.1719 51.8453 34.108C51.9362 32.1473 52 29.8351 52 27.2077C52 24.9217 51.9517 22.8743 51.8793 21.0895C51.7768 18.5618 51.7256 17.298 50.997 15.9242C50.4365 14.8673 49.2128 13.6443 48.1556 13.0843C46.7814 12.3565 45.4867 12.3047 42.8971 12.2011C40.0324 12.0865 36.4098 12 32 12C27.6317 12 24.0359 12.0848 21.184 12.1979C18.5484 12.3023 17.2306 12.3545 15.8566 13.0813C14.7913 13.6447 13.5798 14.854 13.0144 15.9182ZM19.0547 18.371C18.3658 17.8792 17.4042 18.0326 16.9067 18.7134C16.4092 19.3943 16.5643 20.3449 17.2531 20.8367L27.4963 28.1494C30.1849 30.0689 33.8152 30.0689 36.5038 28.1494L46.7469 20.8367C47.4357 20.3449 47.5909 19.3943 47.0934 18.7134C46.5959 18.0326 45.6342 17.8792 44.9454 18.371L34.7023 25.6837C33.0892 26.8354 30.9109 26.8354 29.2978 25.6837L19.0547 18.371Z" fill="white"/>
</mask>
<g mask="url(#mask11_1_322)">
<g filter="url(#filter23_d_1_322)">
<rect x="12" y="12" width="47.9993" height="47.9981" fill="#01154A"/>
</g>
</g>
</g>
<g opacity="0.6" filter="url(#filter24_f_1_322)">
<mask id="mask12_1_322" style="mask-type:alpha" maskUnits="userSpaceOnUse" x="11" y="11" width="48" height="48">
<path fill-rule="evenodd" clip-rule="evenodd" d="M12.0144 14.9182C11.285 16.2908 11.2313 17.5844 11.1239 20.1715C11.0497 21.9578 11 23.9844 11 26.2077C11 28.7642 11.0657 31.0607 11.1588 33.0308C11.2589 35.1505 11.309 36.2104 12.0429 37.5764C12.5724 38.5618 13.8994 39.8758 14.89 40.3956C16.263 41.1161 17.3059 41.1551 19.3916 41.2331C22.203 41.3382 25.9771 41.4154 31 41.4154C36.0695 41.4154 39.867 41.3368 42.6864 41.2302C44.7285 41.1529 45.7496 41.1143 47.1227 40.3928C48.1052 39.8765 49.4442 38.5489 49.9688 37.5708C50.7019 36.2038 50.7497 35.1719 50.8453 33.108C50.9362 31.1473 51 28.8351 51 26.2077C51 23.9217 50.9517 21.8743 50.8793 20.0895C50.7768 17.5618 50.7256 16.298 49.997 14.9242C49.4365 13.8673 48.2128 12.6443 47.1556 12.0843C45.7814 11.3565 44.4867 11.3047 41.8971 11.2011C39.0324 11.0865 35.4098 11 31 11C26.6317 11 23.0359 11.0848 20.184 11.1979C17.5484 11.3023 16.2306 11.3545 14.8566 12.0813C13.7913 12.6447 12.5798 13.854 12.0144 14.9182ZM18.0547 17.371C17.3658 16.8792 16.4042 17.0326 15.9067 17.7134C15.4092 18.3943 15.5643 19.3449 16.2531 19.8367L26.4963 27.1494C29.1849 29.0689 32.8152 29.0689 35.5038 27.1494L45.7469 19.8367C46.4357 19.3449 46.5909 18.3943 46.0934 17.7134C45.5959 17.0326 44.6342 16.8792 43.9454 17.371L33.7023 24.6837C32.0892 25.8354 29.9109 25.8354 28.2978 24.6837L18.0547 17.371Z" fill="white"/>
</mask>
<g mask="url(#mask12_1_322)">
<g filter="url(#filter25_d_1_322)">
<rect x="11" y="11" width="47.9993" height="47.9981" fill="#01154A"/>
</g>
</g>
</g>
<g opacity="0.6" filter="url(#filter26_f_1_322)">
<mask id="mask13_1_322" style="mask-type:alpha" maskUnits="userSpaceOnUse" x="10" y="10" width="48" height="48">
<path fill-rule="evenodd" clip-rule="evenodd" d="M11.0144 13.9182C10.285 15.2908 10.2313 16.5844 10.1239 19.1715C10.0497 20.9578 10 22.9844 10 25.2077C10 27.7642 10.0657 30.0607 10.1588 32.0308C10.2589 34.1505 10.309 35.2104 11.0429 36.5764C11.5724 37.5618 12.8994 38.8758 13.89 39.3956C15.263 40.1161 16.3059 40.1551 18.3916 40.2331C21.203 40.3382 24.9771 40.4154 30 40.4154C35.0695 40.4154 38.867 40.3368 41.6864 40.2302C43.7285 40.1529 44.7496 40.1143 46.1227 39.3928C47.1052 38.8765 48.4442 37.5489 48.9688 36.5708C49.7019 35.2038 49.7497 34.1719 49.8453 32.108C49.9362 30.1473 50 27.8351 50 25.2077C50 22.9217 49.9517 20.8743 49.8793 19.0895C49.7768 16.5618 49.7256 15.298 48.997 13.9242C48.4365 12.8673 47.2128 11.6443 46.1556 11.0843C44.7814 10.3565 43.4867 10.3047 40.8971 10.2011C38.0324 10.0865 34.4098 10 30 10C25.6317 10 22.0359 10.0848 19.184 10.1979C16.5484 10.3023 15.2306 10.3545 13.8566 11.0813C12.7913 11.6447 11.5798 12.854 11.0144 13.9182ZM17.0547 16.371C16.3658 15.8792 15.4042 16.0326 14.9067 16.7134C14.4092 17.3943 14.5643 18.3449 15.2531 18.8367L25.4963 26.1494C28.1849 28.0689 31.8152 28.0689 34.5038 26.1494L44.7469 18.8367C45.4357 18.3449 45.5909 17.3943 45.0934 16.7134C44.5959 16.0326 43.6342 15.8792 42.9454 16.371L32.7023 23.6837C31.0892 24.8354 28.9109 24.8354 27.2978 23.6837L17.0547 16.371Z" fill="white"/>
</mask>
<g mask="url(#mask13_1_322)">
<g filter="url(#filter27_d_1_322)">
<rect x="10" y="10" width="47.9993" height="47.9981" fill="#01154A"/>
</g>
</g>
</g>
<g opacity="0.6" filter="url(#filter28_f_1_322)">
<mask id="mask14_1_322" style="mask-type:alpha" maskUnits="userSpaceOnUse" x="9" y="9" width="49" height="49">
<path fill-rule="evenodd" clip-rule="evenodd" d="M10.5144 13.4182C9.78501 14.7908 9.7313 16.0844 9.62389 18.6715C9.54973 20.4578 9.5 22.4844 9.5 24.7077C9.5 27.2642 9.56575 29.5607 9.6588 31.5308C9.75892 33.6505 9.80899 34.7104 10.5429 36.0764C11.0724 37.0618 12.3994 38.3758 13.39 38.8956C14.763 39.6161 15.8059 39.6551 17.8916 39.7331C20.703 39.8382 24.4771 39.9154 29.5 39.9154C34.5695 39.9154 38.367 39.8368 41.1864 39.7302C43.2285 39.6529 44.2496 39.6143 45.6227 38.8928C46.6052 38.3765 47.9442 37.0489 48.4688 36.0708C49.2019 34.7038 49.2497 33.6719 49.3453 31.608C49.4362 29.6473 49.5 27.3351 49.5 24.7077C49.5 22.4217 49.4517 20.3743 49.3793 18.5895C49.2768 16.0618 49.2256 14.798 48.497 13.4242C47.9365 12.3673 46.7128 11.1443 45.6556 10.5843C44.2814 9.85651 42.9867 9.8047 40.3971 9.70109C37.5324 9.58647 33.9098 9.5 29.5 9.5C25.1317 9.5 21.5359 9.58485 18.684 9.69786C16.0484 9.8023 14.7306 9.85452 13.3566 10.5813C12.2913 11.1447 11.0798 12.354 10.5144 13.4182ZM16.5547 15.871C15.8658 15.3792 14.9042 15.5326 14.4067 16.2134C13.9092 16.8943 14.0643 17.8449 14.7531 18.3367L24.9963 25.6494C27.6849 27.5689 31.3152 27.5689 34.0038 25.6494L44.2469 18.3367C44.9357 17.8449 45.0909 16.8943 44.5934 16.2134C44.0959 15.5326 43.1342 15.3792 42.4454 15.871L32.2023 23.1837C30.5892 24.3354 28.4109 24.3354 26.7978 23.1837L16.5547 15.871Z" fill="white"/>
</mask>
<g mask="url(#mask14_1_322)">
<g filter="url(#filter29_d_1_322)">
<rect x="9.5" y="9.5" width="47.9993" height="47.9981" fill="#01154A"/>
</g>
</g>
</g>
<g filter="url(#filter30_ii_1_322)">
<mask id="mask15_1_322" style="mask-type:alpha" maskUnits="userSpaceOnUse" x="9" y="9" width="48" height="48">
<path fill-rule="evenodd" clip-rule="evenodd" d="M10.0144 12.9182C9.28501 14.2908 9.2313 15.5844 9.12389 18.1715C9.04973 19.9578 9 21.9844 9 24.2077C9 26.7642 9.06575 29.0607 9.1588 31.0308C9.25892 33.1505 9.30899 34.2104 10.0429 35.5764C10.5724 36.5618 11.8994 37.8758 12.89 38.3956C14.263 39.1161 15.3059 39.1551 17.3916 39.2331C20.203 39.3382 23.9771 39.4154 29 39.4154C34.0695 39.4154 37.867 39.3368 40.6864 39.2302C42.7285 39.1529 43.7496 39.1143 45.1227 38.3928C46.1052 37.8765 47.4442 36.5489 47.9688 35.5708C48.7019 34.2038 48.7497 33.1719 48.8453 31.108C48.9362 29.1473 49 26.8351 49 24.2077C49 21.9217 48.9517 19.8743 48.8793 18.0895C48.7768 15.5618 48.7256 14.298 47.997 12.9242C47.4365 11.8673 46.2128 10.6443 45.1556 10.0843C43.7814 9.35651 42.4867 9.3047 39.8971 9.20109C37.0324 9.08647 33.4098 9 29 9C24.6317 9 21.0359 9.08485 18.184 9.19786C15.5484 9.3023 14.2306 9.35452 12.8566 10.0813C11.7913 10.6447 10.5798 11.854 10.0144 12.9182ZM16.0547 15.371C15.3658 14.8792 14.4042 15.0326 13.9067 15.7134C13.4092 16.3943 13.5643 17.3449 14.2531 17.8367L24.4963 25.1494C27.1849 27.0689 30.8152 27.0689 33.5038 25.1494L43.7469 17.8367C44.4357 17.3449 44.5909 16.3943 44.0934 15.7134C43.5959 15.0326 42.6342 14.8792 41.9454 15.371L31.7023 22.6837C30.0892 23.8354 27.9109 23.8354 26.2978 22.6837L16.0547 15.371Z" fill="white"/>
</mask>
<g mask="url(#mask15_1_322)">
<rect x="9" y="9" width="47.9993" height="47.9981" fill="url(#paint0_linear_1_322)"/>
</g>
</g>
<defs>
<filter id="filter0_f_1_322" x="13" y="13" width="144" height="144" filterUnits="userSpaceOnUse" color-interpolation-filters="sRGB">
<feFlood flood-opacity="0" result="BackgroundImageFix"/>
<feBlend mode="normal" in="SourceGraphic" in2="BackgroundImageFix" result="shape"/>
<feGaussianBlur stdDeviation="24" result="effect1_foregroundBlur_1_322"/>
</filter>
<filter id="filter1_d_1_322" x="57" y="61" width="55.9993" height="55.9981" filterUnits="userSpaceOnUse" color-interpolation-filters="sRGB">
<feFlood flood-opacity="0" result="BackgroundImageFix"/>
<feColorMatrix in="SourceAlpha" type="matrix" values="0 0 0 0 0 0 0 0 0 0 0 0 0 0 0 0 0 0 127 0" result="hardAlpha"/>
<feOffset dy="4"/>
<feGaussianBlur stdDeviation="2"/>
<feComposite in2="hardAlpha" operator="out"/>
<feColorMatrix type="matrix" values="0 0 0 0 0 0 0 0 0 0 0 0 0 0 0 0 0 0 0.25 0"/>
<feBlend mode="normal" in2="BackgroundImageFix" result="effect1_dropShadow_1_322"/>
<feBlend mode="normal" in="SourceGraphic" in2="effect1_dropShadow_1_322" result="shape"/>
</filter>
<filter id="filter2_f_1_322" x="13" y="13" width="136" height="136" filterUnits="userSpaceOnUse" color-interpolation-filters="sRGB">
<feFlood flood-opacity="0" result="BackgroundImageFix"/>
<feBlend mode="normal" in="SourceGraphic" in2="BackgroundImageFix" result="shape"/>
<feGaussianBlur stdDeviation="22" result="effect1_foregroundBlur_1_322"/>
</filter>
<filter id="filter3_d_1_322" x="53" y="57" width="55.9993" height="55.9981" filterUnits="userSpaceOnUse" color-interpolation-filters="sRGB">
<feFlood flood-opacity="0" result="BackgroundImageFix"/>
<feColorMatrix in="SourceAlpha" type="matrix" values="0 0 0 0 0 0 0 0 0 0 0 0 0 0 0 0 0 0 127 0" result="hardAlpha"/>
<feOffset dy="4"/>
<feGaussianBlur stdDeviation="2"/>
<feComposite in2="hardAlpha" operator="out"/>
<feColorMatrix type="matrix" values="0 0 0 0 0 0 0 0 0 0 0 0 0 0 0 0 0 0 0.25 0"/>
<feBlend mode="normal" in2="BackgroundImageFix" result="effect1_dropShadow_1_322"/>
<feBlend mode="normal" in="SourceGraphic" in2="effect1_dropShadow_1_322" result="shape"/>
</filter>
<filter id="filter4_f_1_322" x="13" y="13" width="128" height="128" filterUnits="userSpaceOnUse" color-interpolation-filters="sRGB">
<feFlood flood-opacity="0" result="BackgroundImageFix"/>
<feBlend mode="normal" in="SourceGraphic" in2="BackgroundImageFix" result="shape"/>
<feGaussianBlur stdDeviation="20" result="effect1_foregroundBlur_1_322"/>
</filter>
<filter id="filter5_d_1_322" x="49" y="53" width="55.9993" height="55.9981" filterUnits="userSpaceOnUse" color-interpolation-filters="sRGB">
<feFlood flood-opacity="0" result="BackgroundImageFix"/>
<feColorMatrix in="SourceAlpha" type="matrix" values="0 0 0 0 0 0 0 0 0 0 0 0 0 0 0 0 0 0 127 0" result="hardAlpha"/>
<feOffset dy="4"/>
<feGaussianBlur stdDeviation="2"/>
<feComposite in2="hardAlpha" operator="out"/>
<feColorMatrix type="matrix" values="0 0 0 0 0 0 0 0 0 0 0 0 0 0 0 0 0 0 0.25 0"/>
<feBlend mode="normal" in2="BackgroundImageFix" result="effect1_dropShadow_1_322"/>
<feBlend mode="normal" in="SourceGraphic" in2="effect1_dropShadow_1_322" result="shape"/>
</filter>
<filter id="filter6_f_1_322" x="9" y="9" width="128" height="128" filterUnits="userSpaceOnUse" color-interpolation-filters="sRGB">
<feFlood flood-opacity="0" result="BackgroundImageFix"/>
<feBlend mode="normal" in="SourceGraphic" in2="BackgroundImageFix" result="shape"/>
<feGaussianBlur stdDeviation="20" result="effect1_foregroundBlur_1_322"/>
</filter>
<filter id="filter7_d_1_322" x="45" y="49" width="55.9993" height="55.9981" filterUnits="userSpaceOnUse" color-interpolation-filters="sRGB">
<feFlood flood-opacity="0" result="BackgroundImageFix"/>
<feColorMatrix in="SourceAlpha" type="matrix" values="0 0 0 0 0 0 0 0 0 0 0 0 0 0 0 0 0 0 127 0" result="hardAlpha"/>
<feOffset dy="4"/>
<feGaussianBlur stdDeviation="2"/>
<feComposite in2="hardAlpha" operator="out"/>
<feColorMatrix type="matrix" values="0 0 0 0 0 0 0 0 0 0 0 0 0 0 0 0 0 0 0.25 0"/>
<feBlend mode="normal" in2="BackgroundImageFix" result="effect1_dropShadow_1_322"/>
<feBlend mode="normal" in="SourceGraphic" in2="effect1_dropShadow_1_322" result="shape"/>
</filter>
<filter id="filter8_f_1_322" x="9" y="9" width="112" height="112" filterUnits="userSpaceOnUse" color-interpolation-filters="sRGB">
<feFlood flood-opacity="0" result="BackgroundImageFix"/>
<feBlend mode="normal" in="SourceGraphic" in2="BackgroundImageFix" result="shape"/>
<feGaussianBlur stdDeviation="16" result="effect1_foregroundBlur_1_322"/>
</filter>
<filter id="filter9_d_1_322" x="37" y="41" width="55.9993" height="55.9981" filterUnits="userSpaceOnUse" color-interpolation-filters="sRGB">
<feFlood flood-opacity="0" result="BackgroundImageFix"/>
<feColorMatrix in="SourceAlpha" type="matrix" values="0 0 0 0 0 0 0 0 0 0 0 0 0 0 0 0 0 0 127 0" result="hardAlpha"/>
<feOffset dy="4"/>
<feGaussianBlur stdDeviation="2"/>
<feComposite in2="hardAlpha" operator="out"/>
<feColorMatrix type="matrix" values="0 0 0 0 0 0 0 0 0 0 0 0 0 0 0 0 0 0 0.25 0"/>
<feBlend mode="normal" in2="BackgroundImageFix" result="effect1_dropShadow_1_322"/>
<feBlend mode="normal" in="SourceGraphic" in2="effect1_dropShadow_1_322" result="shape"/>
</filter>
<filter id="filter10_f_1_322" x="5" y="5" width="104" height="104" filterUnits="userSpaceOnUse" color-interpolation-filters="sRGB">
<feFlood flood-opacity="0" result="BackgroundImageFix"/>
<feBlend mode="normal" in="SourceGraphic" in2="BackgroundImageFix" result="shape"/>
<feGaussianBlur stdDeviation="14" result="effect1_foregroundBlur_1_322"/>
</filter>
<filter id="filter11_d_1_322" x="29" y="33" width="55.9993" height="55.9981" filterUnits="userSpaceOnUse" color-interpolation-filters="sRGB">
<feFlood flood-opacity="0" result="BackgroundImageFix"/>
<feColorMatrix in="SourceAlpha" type="matrix" values="0 0 0 0 0 0 0 0 0 0 0 0 0 0 0 0 0 0 127 0" result="hardAlpha"/>
<feOffset dy="4"/>
<feGaussianBlur stdDeviation="2"/>
<feComposite in2="hardAlpha" operator="out"/>
<feColorMatrix type="matrix" values="0 0 0 0 0 0 0 0 0 0 0 0 0 0 0 0 0 0 0.25 0"/>
<feBlend mode="normal" in2="BackgroundImageFix" result="effect1_dropShadow_1_322"/>
<feBlend mode="normal" in="SourceGraphic" in2="effect1_dropShadow_1_322" result="shape"/>
</filter>
<filter id="filter12_f_1_322" x="1" y="1" width="96" height="96" filterUnits="userSpaceOnUse" color-interpolation-filters="sRGB">
<feFlood flood-opacity="0" result="BackgroundImageFix"/>
<feBlend mode="normal" in="SourceGraphic" in2="BackgroundImageFix" result="shape"/>
<feGaussianBlur stdDeviation="12" result="effect1_foregroundBlur_1_322"/>
</filter>
<filter id="filter13_d_1_322" x="21" y="25" width="55.9993" height="55.9981" filterUnits="userSpaceOnUse" color-interpolation-filters="sRGB">
<feFlood flood-opacity="0" result="BackgroundImageFix"/>
<feColorMatrix in="SourceAlpha" type="matrix" values="0 0 0 0 0 0 0 0 0 0 0 0 0 0 0 0 0 0 127 0" result="hardAlpha"/>
<feOffset dy="4"/>
<feGaussianBlur stdDeviation="2"/>
<feComposite in2="hardAlpha" operator="out"/>
<feColorMatrix type="matrix" values="0 0 0 0 0 0 0 0 0 0 0 0 0 0 0 0 0 0 0.25 0"/>
<feBlend mode="normal" in2="BackgroundImageFix" result="effect1_dropShadow_1_322"/>
<feBlend mode="normal" in="SourceGraphic" in2="effect1_dropShadow_1_322" result="shape"/>
</filter>
<filter id="filter14_f_1_322" x="0" y="0" width="96" height="96" filterUnits="userSpaceOnUse" color-interpolation-filters="sRGB">
<feFlood flood-opacity="0" result="BackgroundImageFix"/>
<feBlend mode="normal" in="SourceGraphic" in2="BackgroundImageFix" result="shape"/>
<feGaussianBlur stdDeviation="12" result="effect1_foregroundBlur_1_322"/>
</filter>
<filter id="filter15_d_1_322" x="20" y="24" width="55.9993" height="55.9981" filterUnits="userSpaceOnUse" color-interpolation-filters="sRGB">
<feFlood flood-opacity="0" result="BackgroundImageFix"/>
<feColorMatrix in="SourceAlpha" type="matrix" values="0 0 0 0 0 0 0 0 0 0 0 0 0 0 0 0 0 0 127 0" result="hardAlpha"/>
<feOffset dy="4"/>
<feGaussianBlur stdDeviation="2"/>
<feComposite in2="hardAlpha" operator="out"/>
<feColorMatrix type="matrix" values="0 0 0 0 0 0 0 0 0 0 0 0 0 0 0 0 0 0 0.25 0"/>
<feBlend mode="normal" in2="BackgroundImageFix" result="effect1_dropShadow_1_322"/>
<feBlend mode="normal" in="SourceGraphic" in2="effect1_dropShadow_1_322" result="shape"/>
</filter>
<filter id="filter16_f_1_322" x="4" y="4" width="80" height="80" filterUnits="userSpaceOnUse" color-interpolation-filters="sRGB">
<feFlood flood-opacity="0" result="BackgroundImageFix"/>
<feBlend mode="normal" in="SourceGraphic" in2="BackgroundImageFix" result="shape"/>
<feGaussianBlur stdDeviation="8" result="effect1_foregroundBlur_1_322"/>
</filter>
<filter id="filter17_d_1_322" x="16" y="20" width="55.9993" height="55.9981" filterUnits="userSpaceOnUse" color-interpolation-filters="sRGB">
<feFlood flood-opacity="0" result="BackgroundImageFix"/>
<feColorMatrix in="SourceAlpha" type="matrix" values="0 0 0 0 0 0 0 0 0 0 0 0 0 0 0 0 0 0 127 0" result="hardAlpha"/>
<feOffset dy="4"/>
<feGaussianBlur stdDeviation="2"/>
<feComposite in2="hardAlpha" operator="out"/>
<feColorMatrix type="matrix" values="0 0 0 0 0 0 0 0 0 0 0 0 0 0 0 0 0 0 0.25 0"/>
<feBlend mode="normal" in2="BackgroundImageFix" result="effect1_dropShadow_1_322"/>
<feBlend mode="normal" in="SourceGraphic" in2="effect1_dropShadow_1_322" result="shape"/>
</filter>
<filter id="filter18_f_1_322" x="6" y="6" width="68" height="68" filterUnits="userSpaceOnUse" color-interpolation-filters="sRGB">
<feFlood flood-opacity="0" result="BackgroundImageFix"/>
<feBlend mode="normal" in="SourceGraphic" in2="BackgroundImageFix" result="shape"/>
<feGaussianBlur stdDeviation="5" result="effect1_foregroundBlur_1_322"/>
</filter>
<filter id="filter19_d_1_322" x="12" y="16" width="55.9993" height="55.9981" filterUnits="userSpaceOnUse" color-interpolation-filters="sRGB">
<feFlood flood-opacity="0" result="BackgroundImageFix"/>
<feColorMatrix in="SourceAlpha" type="matrix" values="0 0 0 0 0 0 0 0 0 0 0 0 0 0 0 0 0 0 127 0" result="hardAlpha"/>
<feOffset dy="4"/>
<feGaussianBlur stdDeviation="2"/>
<feComposite in2="hardAlpha" operator="out"/>
<feColorMatrix type="matrix" values="0 0 0 0 0 0 0 0 0 0 0 0 0 0 0 0 0 0 0.25 0"/>
<feBlend mode="normal" in2="BackgroundImageFix" result="effect1_dropShadow_1_322"/>
<feBlend mode="normal" in="SourceGraphic" in2="effect1_dropShadow_1_322" result="shape"/>
</filter>
<filter id="filter20_f_1_322" x="8" y="8" width="60" height="60" filterUnits="userSpaceOnUse" color-interpolation-filters="sRGB">
<feFlood flood-opacity="0" result="BackgroundImageFix"/>
<feBlend mode="normal" in="SourceGraphic" in2="BackgroundImageFix" result="shape"/>
<feGaussianBlur stdDeviation="3" result="effect1_foregroundBlur_1_322"/>
</filter>
<filter id="filter21_d_1_322" x="10" y="14" width="55.9993" height="55.9981" filterUnits="userSpaceOnUse" color-interpolation-filters="sRGB">
<feFlood flood-opacity="0" result="BackgroundImageFix"/>
<feColorMatrix in="SourceAlpha" type="matrix" values="0 0 0 0 0 0 0 0 0 0 0 0 0 0 0 0 0 0 127 0" result="hardAlpha"/>
<feOffset dy="4"/>
<feGaussianBlur stdDeviation="2"/>
<feComposite in2="hardAlpha" operator="out"/>
<feColorMatrix type="matrix" values="0 0 0 0 0 0 0 0 0 0 0 0 0 0 0 0 0 0 0.25 0"/>
<feBlend mode="normal" in2="BackgroundImageFix" result="effect1_dropShadow_1_322"/>
<feBlend mode="normal" in="SourceGraphic" in2="effect1_dropShadow_1_322" result="shape"/>
</filter>
<filter id="filter22_f_1_322" x="8" y="8" width="56" height="56" filterUnits="userSpaceOnUse" color-interpolation-filters="sRGB">
<feFlood flood-opacity="0" result="BackgroundImageFix"/>
<feBlend mode="normal" in="SourceGraphic" in2="BackgroundImageFix" result="shape"/>
<feGaussianBlur stdDeviation="2" result="effect1_foregroundBlur_1_322"/>
</filter>
<filter id="filter23_d_1_322" x="8" y="12" width="55.9993" height="55.9981" filterUnits="userSpaceOnUse" color-interpolation-filters="sRGB">
<feFlood flood-opacity="0" result="BackgroundImageFix"/>
<feColorMatrix in="SourceAlpha" type="matrix" values="0 0 0 0 0 0 0 0 0 0 0 0 0 0 0 0 0 0 127 0" result="hardAlpha"/>
<feOffset dy="4"/>
<feGaussianBlur stdDeviation="2"/>
<feComposite in2="hardAlpha" operator="out"/>
<feColorMatrix type="matrix" values="0 0 0 0 0 0 0 0 0 0 0 0 0 0 0 0 0 0 0.25 0"/>
<feBlend mode="normal" in2="BackgroundImageFix" result="effect1_dropShadow_1_322"/>
<feBlend mode="normal" in="SourceGraphic" in2="effect1_dropShadow_1_322" result="shape"/>
</filter>
<filter id="filter24_f_1_322" x="8" y="8" width="54" height="54" filterUnits="userSpaceOnUse" color-interpolation-filters="sRGB">
<feFlood flood-opacity="0" result="BackgroundImageFix"/>
<feBlend mode="normal" in="SourceGraphic" in2="BackgroundImageFix" result="shape"/>
<feGaussianBlur stdDeviation="1.5" result="effect1_foregroundBlur_1_322"/>
</filter>
<filter id="filter25_d_1_322" x="7" y="11" width="55.9993" height="55.9981" filterUnits="userSpaceOnUse" color-interpolation-filters="sRGB">
<feFlood flood-opacity="0" result="BackgroundImageFix"/>
<feColorMatrix in="SourceAlpha" type="matrix" values="0 0 0 0 0 0 0 0 0 0 0 0 0 0 0 0 0 0 127 0" result="hardAlpha"/>
<feOffset dy="4"/>
<feGaussianBlur stdDeviation="2"/>
<feComposite in2="hardAlpha" operator="out"/>
<feColorMatrix type="matrix" values="0 0 0 0 0 0 0 0 0 0 0 0 0 0 0 0 0 0 0.25 0"/>
<feBlend mode="normal" in2="BackgroundImageFix" result="effect1_dropShadow_1_322"/>
<feBlend mode="normal" in="SourceGraphic" in2="effect1_dropShadow_1_322" result="shape"/>
</filter>
<filter id="filter26_f_1_322" x="8" y="8" width="52" height="52" filterUnits="userSpaceOnUse" color-interpolation-filters="sRGB">
<feFlood flood-opacity="0" result="BackgroundImageFix"/>
<feBlend mode="normal" in="SourceGraphic" in2="BackgroundImageFix" result="shape"/>
<feGaussianBlur stdDeviation="1" result="effect1_foregroundBlur_1_322"/>
</filter>
<filter id="filter27_d_1_322" x="6" y="10" width="55.9993" height="55.9981" filterUnits="userSpaceOnUse" color-interpolation-filters="sRGB">
<feFlood flood-opacity="0" result="BackgroundImageFix"/>
<feColorMatrix in="SourceAlpha" type="matrix" values="0 0 0 0 0 0 0 0 0 0 0 0 0 0 0 0 0 0 127 0" result="hardAlpha"/>
<feOffset dy="4"/>
<feGaussianBlur stdDeviation="2"/>
<feComposite in2="hardAlpha" operator="out"/>
<feColorMatrix type="matrix" values="0 0 0 0 0 0 0 0 0 0 0 0 0 0 0 0 0 0 0.25 0"/>
<feBlend mode="normal" in2="BackgroundImageFix" result="effect1_dropShadow_1_322"/>
<feBlend mode="normal" in="SourceGraphic" in2="effect1_dropShadow_1_322" result="shape"/>
</filter>
<filter id="filter28_f_1_322" x="8.5" y="8.5" width="50" height="50" filterUnits="userSpaceOnUse" color-interpolation-filters="sRGB">
<feFlood flood-opacity="0" result="BackgroundImageFix"/>
<feBlend mode="normal" in="SourceGraphic" in2="BackgroundImageFix" result="shape"/>
<feGaussianBlur stdDeviation="0.5" result="effect1_foregroundBlur_1_322"/>
</filter>
<filter id="filter29_d_1_322" x="5.5" y="9.5" width="55.9993" height="55.9981" filterUnits="userSpaceOnUse" color-interpolation-filters="sRGB">
<feFlood flood-opacity="0" result="BackgroundImageFix"/>
<feColorMatrix in="SourceAlpha" type="matrix" values="0 0 0 0 0 0 0 0 0 0 0 0 0 0 0 0 0 0 127 0" result="hardAlpha"/>
<feOffset dy="4"/>
<feGaussianBlur stdDeviation="2"/>
<feComposite in2="hardAlpha" operator="out"/>
<feColorMatrix type="matrix" values="0 0 0 0 0 0 0 0 0 0 0 0 0 0 0 0 0 0 0.25 0"/>
<feBlend mode="normal" in2="BackgroundImageFix" result="effect1_dropShadow_1_322"/>
<feBlend mode="normal" in="SourceGraphic" in2="effect1_dropShadow_1_322" result="shape"/>
</filter>
<filter id="filter30_ii_1_322" x="8.5" y="8" width="49.5" height="50" filterUnits="userSpaceOnUse" color-interpolation-filters="sRGB">
<feFlood flood-opacity="0" result="BackgroundImageFix"/>
<feBlend mode="normal" in="SourceGraphic" in2="BackgroundImageFix" result="shape"/>
<feColorMatrix in="SourceAlpha" type="matrix" values="0 0 0 0 0 0 0 0 0 0 0 0 0 0 0 0 0 0 127 0" result="hardAlpha"/>
<feOffset dx="-0.5" dy="-1"/>
<feGaussianBlur stdDeviation="0.5"/>
<feComposite in2="hardAlpha" operator="arithmetic" k2="-1" k3="1"/>
<feColorMatrix type="matrix" values="0 0 0 0 0.380139 0 0 0 0 0.533759 0 0 0 0 0.766667 0 0 0 1 0"/>
<feBlend mode="normal" in2="shape" result="effect1_innerShadow_1_322"/>
<feColorMatrix in="SourceAlpha" type="matrix" values="0 0 0 0 0 0 0 0 0 0 0 0 0 0 0 0 0 0 127 0" result="hardAlpha"/>
<feOffset dx="1" dy="1"/>
<feGaussianBlur stdDeviation="0.5"/>
<feComposite in2="hardAlpha" operator="arithmetic" k2="-1" k3="1"/>
<feColorMatrix type="matrix" values="0 0 0 0 1 0 0 0 0 1 0 0 0 0 1 0 0 0 1 0"/>
<feBlend mode="soft-light" in2="effect1_innerShadow_1_322" result="effect2_innerShadow_1_322"/>
</filter>
<linearGradient id="paint0_linear_1_322" x1="32.9997" y1="9" x2="32.9997" y2="56.9981" gradientUnits="userSpaceOnUse">
<stop stop-color="white"/>
<stop offset="1" stop-color="#BDCFF5"/>
</linearGradient>
</defs>
</svg>
